<svg width="45" height="34" viewBox="0 0 45 34" fill="none" xmlns="http://www.w3.org/2000/svg">
<path d="M16.2256 12.9671C18.7144 12.1152 20.6928 11.9927 23.784 10.4713C26.8752 8.95 30.454 4.925 30.9949 4.925C31.0761 4.925 31.4872 7.683 31.5162 7.88285C32.138 12.1835 32.3851 16.2227 32.3851 20.5471C32.3851 22.299 32.0374 24.0161 32.0374 25.7238C32.0374 26.23 31.8653 26.6395 31.7768 27.1105C31.7428 27.2918 31.9324 27.7478 31.7768 27.665C30.9237 27.2113 29.992 26.0685 28.9967 25.539C24.9773 23.4006 20.8934 22.075 16.4813 21.645" stroke="black" stroke-opacity="0.9" stroke-width="2.8" stroke-linecap="round" stroke-linejoin="round"/>
<path opacity="0.503384" d="M16.4811 30.643C15.4522 28.2935 15.0664 25.6377 14.8525 22.999C14.5954 19.8266 14.985 13.3098 14.5954 12.7449C13.5118 11.1736 3.13125 13.9459 2.68148 15.1685C2.37669 15.9978 2.42971 17.4121 2.33871 18.3043C2.26493 19.026 2.06784 21.2373 2.33871 21.9737C2.40475 22.1532 9.07332 22.6796 9.62422 23.2787C9.8358 23.509 10.655 28.7262 11.4241 29.8972C12.585 31.665 14.1669 32.2633 15.1096 31.6291" stroke="black" stroke-opacity="0.9" stroke-width="2.8" stroke-linecap="round"/>
<path opacity="0.503384" d="M39.6875 2.125C38.4793 2.53765 37.4334 3.875 36.1172 3.875" stroke="black" stroke-opacity="0.9" stroke-width="2.8" stroke-linecap="round"/>
<path opacity="0.503384" d="M42.347 11.5526C40.8247 11.1989 39.0418 11.5284 37.4785 11.7468" stroke="black" stroke-opacity="0.9" stroke-width="2.8" stroke-linecap="round"/>
<path opacity="0.503384" d="M42.6719 21.1969C41.5181 20.4046 40.3472 20.5005 39.1016 20.5005" stroke="black" stroke-opacity="0.9" stroke-width="2.8" stroke-linecap="round"/>
<path opacity="0.503384" d="M40.8236 30.475C39.8378 29.8366 38.7853 29.2934 37.7402 28.725" stroke="black" stroke-opacity="0.9" stroke-width="2.8" stroke-linecap="round"/>
</svg>
