<svg width="46" height="50" viewBox="0 0 46 50" fill="none" xmlns="http://www.w3.org/2000/svg">
<path d="M12.202 19.9542V11.46C9.82839 14.8061 8.29102 16.9819 7.58978 17.9876C6.88854 18.9933 5.11958 21.2546 2.28277 24.7715C3.10422 26.7018 4.1361 28.4257 5.37866 29.9434C7.24245 32.2198 11.4722 39.2081 12.202 39.5003C12.9319 39.7926 12.4328 31.5558 12.4328 31.5558C12.4328 31.5558 14.3787 31.3374 17.3504 31.3374C18.4765 31.3374 19.8883 31.5558 21.195 31.5558C25.3477 31.5558 26.4273 39.185 26.4273 40.6616C26.4273 42.1382 26.5589 41.3067 27.315 41.3067C28.0711 41.3067 31.3869 33.0987 30.597 28.2692C29.8072 23.4397 26.1238 19.9542 18.7809 19.9542C11.4383 19.9542 16.2837 19.9542 14.5029 19.9542" stroke="black" stroke-opacity="0.9" stroke-width="2.8" stroke-linecap="round" stroke-linejoin="round"/>
<path d="M18.5127 16.2049C19.8194 9.93282 21.7164 2.37294 29.1172 1.63286C32.9784 1.24675 34.9188 1.42037 38.4482 2.97986C43.0242 5.00183 43.1589 9.57549 43.8852 13.8293C44.9202 19.8919 44.5219 26.1314 44.5219 32.2709C44.5219 36.3691 43.7769 40.2881 43.6403 44.3203C43.4894 48.7693 38.8939 47.945 35.7297 47.945C34.248 47.945 26.6914 47.9915 26.0069 46.6225" stroke="black" stroke-width="2.8" stroke-linecap="round"/>
</svg>
