<svg width="278" height="86" viewBox="0 0 278 86" fill="none" xmlns="http://www.w3.org/2000/svg">
<path d="M19.0152 5.46788C51.7856 5.52382 89.2418 5.2093 131.384 4.52326C194.598 3.4942 275 0.874581 275 6.42728C275 11.981 275 17.9528 275 22.9735C275 27.9932 275 57.2143 275 61.9068C275 66.5993 275 74.9131 275 78.6219C275 82.3297 268.07 82.3297 250.461 82.3297C232.853 82.3297 19.8539 83.8379 10.3635 82.3297C0.872998 80.8214 3.26998 34.4758 3.26998 30.2962C3.26998 26.1166 3.26998 20.4869 3.26998 17.3353" fill="#ECF0B0"/>
<path d="M19.0152 5.46788C51.7856 5.52382 89.2418 5.2093 131.384 4.52326C194.598 3.4942 275 0.874581 275 6.42728C275 11.981 275 17.9528 275 22.9735C275 27.9932 275 57.2143 275 61.9068C275 66.5993 275 74.9131 275 78.6219C275 82.3297 268.07 82.3297 250.461 82.3297C232.853 82.3297 19.8539 83.8379 10.3635 82.3297C0.872998 80.8214 3.26998 34.4758 3.26998 30.2962C3.26998 26.1166 3.26998 20.4869 3.26998 17.3353" stroke="black" stroke-opacity="0.9" stroke-width="4.5" stroke-linecap="round" stroke-linejoin="round"/>
</svg>
