<svg width="54" height="46" viewBox="0 0 54 46" fill="none" xmlns="http://www.w3.org/2000/svg">
<path d="M14.749 16.2593C21.211 6.21009 37.0992 6.29289 39.1023 16.0131" stroke="black" stroke-opacity="0.9" stroke-width="3.6" stroke-linecap="round" stroke-linejoin="round"/>
<path d="M15.4321 18.4676C13.5034 20.9951 5.5638 23.3456 3.36906 19.2038C-6.22332 1.10281 32.3267 -2.31224 46.6135 6.93211C59.407 15.2101 47.3731 27.3862 38.8751 18.2224" stroke="black" stroke-opacity="0.9" stroke-width="3.6" stroke-linecap="round" stroke-linejoin="round"/>
<path d="M5.64453 39.5753C12.6663 22.3657 27.5445 13.2541 40.4678 29.5126C42.356 31.8873 45.2711 35.7156 44.7923 39.33C44.1639 44.0724 10.1943 46.1979 7.01028 41.0479" stroke="black" stroke-opacity="0.9" stroke-width="3.6" stroke-linecap="round" stroke-linejoin="round"/>
<path d="M22.4879 23.131C24.8788 21.3366 29.5203 20.5377 32.2747 22.3946C34.2572 23.7309 35.974 27.5478 35.6893 30.003C33.5944 48.072 5.82733 26.5791 24.0811 21.6582" stroke="black" stroke-opacity="0.9" stroke-width="3.6" stroke-linecap="round" stroke-linejoin="round"/>
<path opacity="0.491978" d="M21.5781 11.5955C23.4047 14.7783 23.5754 20.4074 23.1713 22.1495" stroke="black" stroke-opacity="0.9" stroke-width="3.6" stroke-linecap="round" stroke-linejoin="round"/>
<path opacity="0.491978" d="M30.6805 10.963C28.7111 14.9052 28.912 19.4253 28.912 23.7635" stroke="black" stroke-opacity="0.9" stroke-width="3.6" stroke-linecap="round" stroke-linejoin="round"/>
</svg>
