<svg width="26" height="18" viewBox="0 0 26 18" fill="none" xmlns="http://www.w3.org/2000/svg">
<path d="M1.50061 7.27761C2.45218 8.65929 3.69379 10.6692 4.66583 12.0096C5.92914 13.7513 7.15327 15.1481 8.33834 16.2001C8.76527 16.2001 12.4694 11.085 12.7464 10.7035C13.5323 9.62106 16.8043 4.55745 17.2378 3.92975C17.6231 3.37218 17.9963 2.809 18.3739 2.24783C18.3994 2.20982 18.4171 2.1682 18.4443 2.11708" stroke="black" stroke-opacity="0.9" stroke-width="2.56" stroke-linecap="round" stroke-linejoin="round"/>
<path d="M11.1132 13.05C12.3765 14.7917 12.5029 14.831 13.6879 15.883C14.1149 15.883 17.819 10.7679 18.096 10.3864C18.8819 9.30397 22.1539 4.24036 22.5874 3.61266C22.9727 3.05509 23.3459 2.49191 23.7235 1.93074C23.7491 1.89272 23.7667 1.85111 23.7939 1.79999" stroke="black" stroke-opacity="0.9" stroke-width="2.56" stroke-linecap="round" stroke-linejoin="round"/>
</svg>
