<svg width="462" height="80" viewBox="0 0 462 80" fill="none" xmlns="http://www.w3.org/2000/svg">
<path d="M29.3761 5.28377C84.3771 5.33611 147.243 5.04183 217.974 4.39996C324.07 3.43714 459.014 0.98617 459.014 6.18141C459.014 11.3776 459.014 16.9649 459.014 21.6624C459.014 26.359 459.014 53.6989 459.014 58.0893C459.014 62.4798 459.014 70.2583 459.014 73.7284C459.014 77.1975 447.382 77.1975 417.829 77.1975C388.276 77.1975 30.7837 78.6086 14.8553 77.1975C-1.07332 75.7863 2.9497 32.4242 2.9497 28.5137C2.9497 24.6032 2.9497 19.3359 2.9497 16.3872" fill="#ECF0B0"/>
<path d="M29.3761 5.28377C84.3771 5.33611 147.243 5.04183 217.974 4.39996C324.07 3.43714 459.014 0.98617 459.014 6.18141C459.014 11.3776 459.014 16.9649 459.014 21.6624C459.014 26.359 459.014 53.6989 459.014 58.0893C459.014 62.4798 459.014 70.2583 459.014 73.7284C459.014 77.1975 447.382 77.1975 417.829 77.1975C388.276 77.1975 30.7837 78.6086 14.8553 77.1975C-1.07332 75.7863 2.9497 32.4242 2.9497 28.5137C2.9497 24.6032 2.9497 19.3359 2.9497 16.3872" stroke="black" stroke-opacity="0.9" stroke-width="4" stroke-linecap="round" stroke-linejoin="round"/>
</svg>
