<svg width="212" height="91" viewBox="0 0 212 91" fill="none" xmlns="http://www.w3.org/2000/svg">
<path d="M15.1292 5.6175C39.9479 5.67683 68.3155 5.34323 100.232 4.6156C148.107 3.52416 209 0.74573 209 6.63506C209 12.5255 209 18.8592 209 24.1844C209 29.5084 209 60.5009 209 65.4779C209 70.4549 209 79.2727 209 83.2064C209 87.1389 203.751 87.1389 190.416 87.1389C177.08 87.1389 15.7643 88.7386 8.57676 87.1389C1.38911 85.5393 3.20447 36.3839 3.20447 31.951C3.20447 27.518 3.20447 21.547 3.20447 18.2044" fill="#ECF0B0"/>
<path d="M15.1292 5.6175C39.9479 5.67683 68.3155 5.34323 100.232 4.6156C148.107 3.52416 209 0.74573 209 6.63506C209 12.5255 209 18.8592 209 24.1844C209 29.5084 209 60.5009 209 65.4779C209 70.4549 209 79.2727 209 83.2064C209 87.1389 203.751 87.1389 190.416 87.1389C177.08 87.1389 15.7643 88.7386 8.57676 87.1389C1.38911 85.5393 3.20447 36.3839 3.20447 31.951C3.20447 27.518 3.20447 21.547 3.20447 18.2044" stroke="black" stroke-opacity="0.9" stroke-width="5" stroke-linecap="round" stroke-linejoin="round"/>
</svg>
