<svg width="40" height="32" viewBox="0 0 40 32" fill="none" xmlns="http://www.w3.org/2000/svg">
<path d="M9.2249 14.9794C8.24402 14.8651 1.21671 10.5005 1.64367 10.0707C1.72531 9.98823 26.1952 6.59953 31.4252 4.84131C32.1558 4.59613 38.0759 2.03414 38.3678 2.18114C38.5533 2.27459 36.1336 6.48491 36.0074 6.94131C32.5948 19.2797 30.3817 30.4916 30.3007 29.842C30.1357 28.5101 21.3118 22.892 18.3741 20.522" stroke="#55463A" stroke-width="2.8" stroke-linecap="round" stroke-linejoin="round"/>
<path d="M34.3407 5.26136C31.4423 6.22298 28.9587 7.85276 26.2875 9.32153C23.8515 10.6617 14.5797 14.9558 12.9586 16.1822C12.5652 16.4796 12.91 17.2394 12.9586 17.5822C13.6823 22.6889 14.6983 27.4319 14.7634 27.3822C16.3458 26.1859 15.3766 20.997 17.5403 19.5419C24.3905 14.9375 31.7788 11.4807 36.1454 4.14136" stroke="#55463A" stroke-width="2.8" stroke-linecap="round" stroke-linejoin="round"/>
<path d="M14.916 27.4366C16.9 25.9474 18.7896 24.3185 20.8739 23.326" stroke="#55463A" stroke-width="2.8" stroke-linecap="round" stroke-linejoin="round"/>
</svg>
