<svg width="41" height="40" viewBox="0 0 41 40" fill="none" xmlns="http://www.w3.org/2000/svg">
<path d="M13.0107 23.0422C17.1315 18.6808 22.6657 14.5379 26.4716 10.5514C26.9619 10.0379 27.5329 -1.27346 34.8129 2.61025" stroke="black" stroke-opacity="0.9" stroke-width="2.8" stroke-linecap="round" stroke-linejoin="round"/>
<path d="M34.5893 4.27484C33.63 4.68749 31.0836 7.55592 32.7116 8.42794C32.9198 8.53959 33.2954 9.06214 33.4942 9.09417C35.8416 9.47392 37.5713 4.61819 38.6938 7.02409C40.1297 10.1015 36.4904 12.9715 34.3328 13.8965C33.2886 14.344 31.5974 13.3183 31.1263 13.6216C31.0195 13.6898 15.4104 28.1513 15.0938 28.603C15.049 28.6676 15.9076 32.769 15.2223 34.2389C14.135 36.5686 10.484 38.7486 8.03921 38.2248C6.67719 37.9328 11.5142 32.4455 10.4393 30.5863C10.1483 30.083 9.51394 29.8054 9.27506 29.5378C7.98356 28.0915 3.82189 34.1172 2.9093 33.1386C0.60378 30.6687 3.53909 23.4569 8.42421 24.2051" stroke="black" stroke-opacity="0.9" stroke-width="2.8" stroke-linecap="round" stroke-linejoin="round"/>
</svg>
