<svg width="713" height="599" viewBox="0 0 713 599" fill="none" xmlns="http://www.w3.org/2000/svg">
<path d="M710.013 547.305C710.013 544.442 705.588 414.344 706.013 280.803C706.431 149.689 711.759 15.0836 705.35 12.9452C692.412 8.62928 366.634 12.9452 300.641 12.9452C234.649 12.9452 11.7152 1.57677 11.7152 3.70997C11.7152 5.84318 2.65839 383.008 2.65839 393.127C2.65839 403.244 11.9261 595.011 255.36 590.435C498.791 585.859 687.526 595.111 696.302 596" fill="#ECEEFA"/>
<path d="M710.013 547.305C710.013 544.442 705.588 414.344 706.013 280.803C706.431 149.689 711.759 15.0836 705.35 12.9452C692.412 8.62928 366.634 12.9452 300.641 12.9452C234.649 12.9452 11.7152 1.57677 11.7152 3.70997C11.7152 5.84318 2.65841 383.008 2.65841 393.127C2.65841 403.244 11.9261 595.011 255.36 590.435C498.791 585.859 687.526 595.111 696.302 596" stroke="#273274" stroke-width="5" stroke-linecap="round" stroke-linejoin="round"/>
<path d="M221.538 587.92C178 556.5 178.5 556.5 157 513C147 458.5 146.273 458.112 159 429.5C128.5 458 128.5 458 101.5 473C59.5 486 29.5649 492.114 19 461.5" fill="#ECEEFA"/>
<path d="M221.538 587.92C178 556.5 178.5 556.5 157 513C147 458.5 146.273 458.112 159 429.5C128.5 458 128.5 458 101.5 473C59.5 486 29.5649 492.114 19 461.5" stroke="#273274" stroke-width="5" stroke-linecap="round" stroke-linejoin="round"/>
</svg>
