<svg width="713" height="595" viewBox="0 0 713 595" fill="none" xmlns="http://www.w3.org/2000/svg">
<path d="M710.013 543.634C710.013 540.79 705.588 411.57 706.013 278.931C706.431 148.702 711.759 15.005 705.35 12.8811C692.412 8.59427 366.634 12.8811 300.641 12.8811C234.649 12.8811 11.7152 1.58937 11.7152 3.70817C11.7152 5.82698 2.65841 380.446 2.65841 390.497C2.65841 400.545 11.9261 591.018 255.36 586.473C498.791 581.928 687.526 591.117 696.302 592" fill="#ECEEFA"/>
<path d="M710.013 543.634C710.013 540.79 705.588 411.57 706.013 278.931C706.431 148.702 711.759 15.005 705.35 12.8811C692.412 8.59427 366.634 12.8811 300.641 12.8811C234.649 12.8811 11.7152 1.58937 11.7152 3.70817C11.7152 5.82698 2.65841 380.446 2.65841 390.497C2.65841 400.545 11.9261 591.018 255.36 586.473C498.791 581.928 687.526 591.117 696.302 592" stroke="#273274" stroke-width="5" stroke-linecap="round" stroke-linejoin="round"/>
<path d="M221.538 583.974C178 552.767 171.913 561.946 148 519.5C128 484 132.5 497.5 127 449C100 477 117.5 464.601 90.5 479.5C48.5 492.412 29.5649 488.815 19 458.408" fill="#ECEEFA"/>
<path d="M221.538 583.974C178 552.767 171.913 561.946 148 519.5C128 484 132.5 497.5 127 449C100 477 117.5 464.601 90.5 479.5C48.5 492.412 29.5649 488.815 19 458.408" stroke="#273274" stroke-width="5" stroke-linecap="round" stroke-linejoin="round"/>
</svg>
