<svg width="39" height="34" viewBox="0 0 39 34" fill="none" xmlns="http://www.w3.org/2000/svg">
<path d="M5.50856 2.78825C6.50481 2.77738 7.50106 2.81886 8.49829 2.83071C9.17895 2.83861 9.86059 2.82675 10.5412 2.83465C11.5029 2.84552 22.7386 2.93044 24.0089 2.89193C25.6987 2.84058 26.2517 2.77936 27.9414 2.71813C28.9585 2.6816 29.1227 2.63025 30.1397 2.60161C30.8748 2.58087 31.6108 2.56112 32.3449 2.58581C33.5519 2.62728 36.0371 2.40509 36.969 2.58581C37.245 2.64012 34.7282 7.71883 31.4733 13.3881C29.8666 16.1857 27.7713 20.2561 26.131 22.9708C23.999 26.4981 21.9323 29.3273 19.9319 31.4573C19.2117 31.4573 12.9602 21.0985 12.4922 20.3253C11.1655 18.134 5.64311 7.8788 4.912 6.60789C4.26103 5.47819 3.63183 4.33763 2.99371 3.20102C2.95117 3.12399 2.9215 3.04005 2.875 2.93636" fill="#B7BB7F"/>
<path d="M5.50856 2.78825C6.50481 2.77738 7.50106 2.81886 8.49829 2.83071C9.17895 2.83861 9.86059 2.82675 10.5412 2.83465C11.5029 2.84552 22.7386 2.93044 24.0089 2.89193C25.6986 2.84058 26.2517 2.77936 27.9414 2.71813C28.9585 2.6816 29.1227 2.63025 30.1397 2.60161C30.8748 2.58087 31.6108 2.56112 32.3449 2.58581C33.5519 2.62728 36.0371 2.40509 36.969 2.58581C37.245 2.64012 34.7282 7.71883 31.4733 13.3881C29.8666 16.1857 27.7713 20.2561 26.131 22.9708C23.999 26.4981 21.9323 29.3273 19.9319 31.4573C19.2117 31.4573 12.9602 21.0985 12.4922 20.3253C11.1655 18.134 5.64311 7.8788 4.912 6.60789C4.26103 5.47819 3.63183 4.33763 2.99371 3.20102C2.95117 3.12399 2.9215 3.04005 2.875 2.93636" stroke="black" stroke-opacity="0.9" stroke-width="4" stroke-linecap="round" stroke-linejoin="round"/>
</svg>
