<svg width="342" height="80" viewBox="0 0 342 80" fill="none" xmlns="http://www.w3.org/2000/svg">
<path d="M21.9571 5.28377C62.6555 5.33611 109.173 5.04183 161.511 4.39996C240.018 3.43714 339.871 0.98617 339.871 6.18141C339.871 11.3776 339.871 16.9649 339.871 21.6624C339.871 26.359 339.871 53.6989 339.871 58.0893C339.871 62.4798 339.871 70.2583 339.871 73.7284C339.871 77.1975 331.264 77.1975 309.396 77.1975C287.528 77.1975 22.9987 78.6086 11.2123 77.1975C-0.574196 75.7863 2.40267 32.4242 2.40267 28.5137C2.40267 24.6032 2.40267 19.3359 2.40267 16.3872" fill="#ECF0B0"/>
<path d="M21.9571 5.28377C62.6555 5.33611 109.173 5.04183 161.511 4.39996C240.018 3.43714 339.871 0.98617 339.871 6.18141C339.871 11.3776 339.871 16.9649 339.871 21.6624C339.871 26.359 339.871 53.6989 339.871 58.0893C339.871 62.4798 339.871 70.2583 339.871 73.7284C339.871 77.1975 331.264 77.1975 309.396 77.1975C287.528 77.1975 22.9987 78.6086 11.2123 77.1975C-0.574196 75.7863 2.40267 32.4242 2.40267 28.5137C2.40267 24.6032 2.40267 19.3359 2.40267 16.3872" stroke="black" stroke-opacity="0.9" stroke-width="4" stroke-linecap="round" stroke-linejoin="round"/>
</svg>
