<svg width="54" height="40" viewBox="0 0 54 40" fill="none" xmlns="http://www.w3.org/2000/svg">
<path fill-rule="evenodd" clip-rule="evenodd" d="M5.12263 10.8518C-0.808453 16.783 -0.808453 26.3991 5.12263 32.3303C7.87237 35.08 11.4182 36.5558 15.0172 36.7551C15.9478 36.8067 16.7439 36.0941 16.7954 35.1635C16.847 34.2331 16.1344 33.4368 15.2039 33.3853C12.402 33.2301 9.64915 32.0837 7.50911 29.9437C2.89605 25.3305 2.89605 17.8513 7.50911 13.2383L13.8731 6.87435C18.4861 2.26129 25.9654 2.26129 30.5784 6.87435C35.1916 11.4874 35.1916 18.9666 30.5784 23.5798L27.3964 26.7618C26.7374 27.4208 26.7374 28.4893 27.3964 29.1481C28.0555 29.8071 29.124 29.8071 29.783 29.1481L32.965 25.9662C38.896 20.0352 38.896 10.419 32.965 4.48787C27.034 -1.44322 17.4177 -1.44322 11.4866 4.48787L5.12263 10.8518Z" fill="black"/>
<path opacity="0.5" d="M23.4193 33.1258C18.8062 28.5128 18.8062 21.0336 23.4193 16.4204L26.6013 13.2385C27.2603 12.5795 27.2603 11.511 26.6013 10.852C25.9422 10.193 24.8737 10.193 24.2147 10.852L21.0328 14.034C15.1017 19.9651 15.1017 29.5813 21.0328 35.5123C26.964 41.4433 36.58 41.4433 42.5112 35.5123L48.8751 29.1484C54.8061 23.2172 54.8061 13.6011 48.8751 7.67C46.1254 4.92028 42.5796 3.44443 38.9805 3.24506C38.0499 3.19351 37.2539 3.90609 37.2024 4.83664C37.1508 5.7672 37.8634 6.56336 38.7938 6.61491C41.5957 6.77011 44.3486 7.91644 46.4886 10.0565C51.1017 14.6696 51.1017 22.1489 46.4886 26.7619L40.1247 33.1258C35.5117 37.7389 28.0323 37.7389 23.4193 33.1258Z" fill="black"/>
</svg>
