<svg width="38" height="65" viewBox="0 0 38 65" fill="none" xmlns="http://www.w3.org/2000/svg">
<path d="M6.97054 4.02325C13.2282 3.58178 17.5123 3.25704 19.8226 3.04902C27.062 2.39716 30.7109 3.00812 31.4385 3.04902C33.0528 3.13976 34.3489 4.92126 34.7145 8.67817C35.0804 12.4351 35.7646 53.6811 34.0957 58.7712C32.6695 63.1215 19.106 62.06 10.4131 61.5507C7.51766 61.3811 4.52326 60.6998 4.07707 58.7712C2.40429 51.5391 2.63045 11.5543 4.07707 6.67013" stroke="black" stroke-opacity="0.9" stroke-width="4" stroke-linecap="round" stroke-linejoin="round"/>
<path opacity="0.503384" d="M6.54932 50.8552C14.1478 51.1723 23.0998 49.8737 30.2322 50.8552" stroke="black" stroke-opacity="0.9" stroke-width="4" stroke-linecap="round" stroke-linejoin="round"/>
<path d="M18.6186 54.9646C25.7559 54.8453 13.3991 60.8695 18.1395 54.7314" stroke="black" stroke-opacity="0.9" stroke-width="4" stroke-linecap="round" stroke-linejoin="round"/>
<path opacity="0.503384" d="M5.18262 12.2315C14.4684 11.7375 24.2464 11.4878 33.3848 11.4878" stroke="black" stroke-opacity="0.9" stroke-width="4" stroke-linecap="round" stroke-linejoin="round"/>
<path d="M21.8065 7.42982C20.1973 7.42134 18.5818 7.33126 17.0244 7.69918" stroke="black" stroke-opacity="0.9" stroke-width="4" stroke-linecap="round" stroke-linejoin="round"/>
</svg>
