<svg width="206" height="204" viewBox="0 0 206 204" fill="none" xmlns="http://www.w3.org/2000/svg">
<path fill-rule="evenodd" clip-rule="evenodd" d="M6.52587 44.8C1.67771 54.4 -3.59198 77.7992 3.32594 97.2C6.79642 106.933 12.2509 114.261 18.165 120.155L18.8563 86L19.326 62.8L49.326 47.6001L73.296 54.8C75.9712 49.3974 78.9744 44.0787 82.2456 39.2001C80.5896 37.4484 79.2208 35.781 78.5576 34.9496C78.308 34.6362 78.3376 34.1883 78.6216 33.9048L91.0552 21.4713C91.2264 21.2998 91.4648 21.2153 91.704 21.2547C92.5984 21.4018 94.9088 21.8878 96.82 23.2001C96.82 23.2001 110.926 20.0001 120.526 23.2001C121.939 23.671 123.195 24.1858 124.317 24.8001C124.317 24.8001 133.726 22.8001 137.326 23.6001C140.286 24.258 141.35 26.9905 141.726 30.0001C142.126 33.2001 141.726 41.6 141.726 41.6C141.843 41.6001 141.96 41.6001 142.076 41.6001C143.192 41.6001 144.294 41.6001 145.515 41.6559C146.647 41.7078 147.882 41.8076 149.326 42.0001C152.61 42.438 154.276 44.3507 154.926 47.6001C155.268 49.3086 154.604 51.763 153.48 54.4C150.656 61.024 144.926 68.8 144.926 68.8L185.326 78V101.2V148.188C197.809 136.422 204.345 125.762 205.726 108C207.391 86.58 198.936 66.8 190.926 51.2C179.87 29.6701 162.126 18.4245 146.926 11.6C131.726 4.77552 107.326 0 84.9256 0C62.5256 0 42.9258 9.20008 31.3259 16.4C19.7259 23.5999 11.3739 35.2001 6.52587 44.8Z" fill="#DFC5AD"/>
<path d="M49.3257 47.6L19.3257 62.8L49.3257 47.6ZM49.3257 47.6L73.2959 54.8L49.3257 47.6ZM49.3257 47.6V71.8584V47.6ZM19.3257 62.8L18.8561 86L19.3257 62.8ZM19.3257 62.8L49.3257 71.8584L19.3257 62.8ZM154.525 201.6L17.914 161.771C17.5669 161.67 17.3308 161.349 17.3381 160.987L17.8844 134M154.525 201.6L185.002 179.04C185.206 178.889 185.326 178.65 185.326 178.397V153.6M154.525 201.6V172.4V201.6ZM185.326 78L144.925 68.8L185.326 78ZM185.326 78L154.525 94.8L185.326 78ZM185.326 78V101.2V78ZM144.925 68.8C144.925 68.8 150.655 61.024 153.479 54.4L144.925 68.8ZM144.925 68.8C139.503 70.196 135.877 70.4928 132.925 69.5384L144.925 68.8ZM154.525 94.8V118.4V94.8ZM154.525 94.8L130.525 90.1712L154.525 94.8ZM154.525 118.4L185.326 101.2L154.525 118.4ZM154.525 118.4V172.4V118.4ZM185.326 101.2V153.6V101.2ZM154.525 172.4L185.326 153.6L154.525 172.4ZM154.525 172.4L88.7279 153.909L154.525 172.4ZM96.8191 23.2C94.9079 21.8877 92.5975 21.4017 91.7039 21.2547C91.4647 21.2153 91.2263 21.2998 91.0543 21.4712L78.6207 33.9047C78.3375 34.1883 78.3071 34.6361 78.5575 34.9495C79.2207 35.7809 80.5895 37.4483 82.2447 39.2M96.8191 23.2C97.4543 23.6361 98.0455 24.1635 98.5255 24.8C102.61 30.214 97.3255 40.4 95.7255 42.4C93.7351 44.8879 90.4135 45.7106 87.7255 44C85.8927 42.8338 83.9215 40.9737 82.2447 39.2M96.8191 23.2C96.8191 23.2 110.925 20 120.525 23.2C121.938 23.671 123.195 24.1858 124.317 24.8M126.125 64.2416C127.616 66.0672 129.013 67.4456 130.525 68.4048L126.125 64.2416ZM132.125 60.4C127.027 64.3064 122.905 66.1608 116.525 67.02L132.125 60.4ZM108.925 67.6C111.821 67.4976 114.309 67.3184 116.525 67.02L108.925 67.6ZM145.515 41.6559C146.647 41.7077 147.882 41.8075 149.325 42C152.61 42.4379 154.276 44.3507 154.925 47.6C155.267 49.3085 154.604 51.763 153.479 54.4M145.515 41.6559C145.31 48.5226 147.12 51.2818 153.479 54.4L145.515 41.6559ZM145.515 41.6559C144.165 41.5942 142.962 41.6007 141.725 41.5999L145.515 41.6559ZM116.525 67.02C116.525 67.02 115.229 73.8536 118.925 76C123.82 78.8416 130.525 68.4048 130.525 68.4048M130.525 68.4048C131.288 68.888 132.079 69.2648 132.925 69.5384L130.525 68.4048ZM82.2447 39.2C74.5287 50.7088 68.3015 64.6656 64.3671 76.4L82.2447 39.2ZM132.925 69.5384C132.925 69.5384 134.125 85.6 132.925 89.2C132.547 90.3368 131.63 90.3688 130.525 90.1712M130.525 90.1712C128.623 89.8328 126.163 88.8168 124.925 91.6C123.867 93.9824 120.554 102.93 115.897 110.319M64.3671 76.4C61.5975 84.6616 59.9647 91.8208 59.7503 96.248L64.3671 76.4ZM64.3671 76.4L49.3257 71.8584L64.3671 76.4ZM18.8561 86L17.8844 134L18.8561 86ZM18.8561 86L51.3257 94.1368L18.8561 86ZM154.525 120L115.897 110.319L154.525 120ZM115.897 110.319C113.874 113.53 111.598 116.445 109.142 118.4L115.897 110.319ZM96.3551 105.422C97.1343 95.38 100.561 83.9504 100.925 82.8C101.278 81.6896 87.3255 79.6 85.7255 81.2C84.7919 82.1344 79.9039 91.9296 75.0423 100.081M96.3551 105.422L75.0423 100.081L96.3551 105.422ZM96.3551 105.422C95.9991 110.008 96.1951 114.304 97.4871 117.2L96.3551 105.422ZM75.0423 100.081C71.5759 105.892 68.1231 110.867 66.1255 111.2C63.1863 111.69 61.4471 110.08 60.5407 106.462M59.7503 96.248C59.7335 96.5816 59.7255 96.8984 59.7255 97.2C59.7255 101.077 59.9663 104.172 60.5407 106.462M59.7503 96.248L51.3257 94.1368L59.7503 96.248ZM17.8844 134L44.9468 141.606L17.8844 134ZM51.3257 94.1368C43.0281 113.229 41.7429 130.187 44.9468 141.606L51.3257 94.1368ZM97.4871 117.2C98.3527 119.141 99.7111 120.453 101.725 120.8C104.317 121.246 106.81 120.257 109.142 118.4M97.4871 117.2C90.0431 133.382 82.3615 144.007 75.2055 150.109L97.4871 117.2ZM60.5407 106.462C53.9846 121.88 52.2545 134.646 53.7112 144.068L60.5407 106.462ZM109.142 118.4C103.531 135.243 96.2119 146.862 88.7279 153.909L109.142 118.4ZM44.9468 141.606C49.1668 156.644 61.1743 162.073 75.2055 150.109L44.9468 141.606ZM53.7112 144.068L75.2055 150.109L53.7112 144.068ZM53.7112 144.068C56.6975 163.382 73.0743 168.648 88.7279 153.909L53.7112 144.068ZM24.9257 124V127.6V124ZM23.7257 152V156.4V152ZM147.325 126.8V130.8V126.8ZM140.525 134.8V139.2V134.8ZM147.325 139.2V143.2V139.2ZM176.125 171.6L179.725 169.6L176.125 171.6ZM173.725 179.6L176.925 178L173.725 179.6ZM110.925 38V44.4V38ZM120.525 38V44.4V38ZM168.925 43.2C175.694 37.0489 179.238 34.1815 184.126 32.4L168.925 43.2ZM174.925 51.2C182.533 50.3498 186.2 50.1099 190.926 50.4L174.925 51.2ZM172.525 61.2C178.973 61.5416 182.258 62.284 187.726 64.2416L172.525 61.2ZM124.317 24.8C126.869 26.1987 128.722 28.1131 130.125 31.2C132.125 35.6 129.935 40.6263 134.525 41.2C137.553 41.5783 139.685 41.5988 141.725 41.5999M124.317 24.8C124.317 24.8 133.725 22.8 137.325 23.6C140.286 24.2579 141.349 26.9904 141.725 30C142.125 33.2 141.725 41.5999 141.725 41.5999" fill="#DFC5AD"/>
<path d="M49.3257 47.6L19.3257 62.8M49.3257 47.6L73.2959 54.8M49.3257 47.6V71.8584M19.3257 62.8L18.8561 86M19.3257 62.8L49.3257 71.8584M49.3257 71.8584L64.3671 76.4M18.8561 86L17.8844 134M18.8561 86L51.3257 94.1368M154.525 201.6L17.914 161.771C17.5669 161.67 17.3308 161.349 17.3381 160.987L17.8844 134M154.525 201.6L185.002 179.04C185.206 178.889 185.326 178.65 185.326 178.397V153.6M154.525 201.6V172.4M17.8844 134L44.9468 141.606M185.326 153.6V101.2M185.326 153.6L154.525 172.4M154.525 172.4V118.4M154.525 172.4L88.7279 153.909M185.326 78L144.925 68.8M185.326 78L154.525 94.8M185.326 78V101.2M144.925 68.8C144.925 68.8 150.655 61.024 153.479 54.4M144.925 68.8C139.503 70.196 135.877 70.4928 132.925 69.5384M154.525 94.8V118.4M154.525 94.8L130.525 90.1712M185.326 101.2L154.525 118.4M153.479 54.4C154.604 51.763 155.267 49.3085 154.925 47.6C154.276 44.3507 152.61 42.4379 149.325 42C147.882 41.8075 146.647 41.7077 145.515 41.6559M153.479 54.4C147.12 51.2818 145.31 48.5226 145.515 41.6559M132.925 69.5384C132.079 69.2648 131.288 68.888 130.525 68.4048M132.925 69.5384C132.925 69.5384 134.125 85.6 132.925 89.2C132.547 90.3368 131.63 90.3688 130.525 90.1712M130.525 90.1712C128.623 89.8328 126.163 88.8168 124.925 91.6C123.867 93.9824 120.554 102.93 115.897 110.319M88.7279 153.909C96.2119 146.862 103.531 135.243 109.142 118.4M88.7279 153.909C73.0743 168.648 56.6975 163.382 53.7112 144.068M96.8191 23.2C94.9079 21.8877 92.5975 21.4017 91.7039 21.2547C91.4647 21.2153 91.2263 21.2998 91.0543 21.4712L78.6207 33.9047C78.3375 34.1883 78.3071 34.6361 78.5575 34.9495C79.2207 35.7809 80.5895 37.4483 82.2447 39.2M96.8191 23.2C97.4543 23.6361 98.0455 24.1635 98.5255 24.8C102.61 30.214 97.3255 40.4 95.7255 42.4C93.7351 44.8879 90.4135 45.7106 87.7255 44C85.8927 42.8338 83.9215 40.9737 82.2447 39.2M96.8191 23.2C96.8191 23.2 110.925 20 120.525 23.2C121.938 23.671 123.195 24.1858 124.317 24.8M82.2447 39.2C74.5287 50.7088 68.3015 64.6656 64.3671 76.4M124.317 24.8C126.869 26.1987 128.722 28.1131 130.125 31.2C132.125 35.6 129.935 40.6263 134.525 41.2C137.553 41.5783 139.685 41.5988 141.725 41.5999M124.317 24.8C124.317 24.8 133.725 22.8 137.325 23.6C140.286 24.2579 141.349 26.9904 141.725 30C142.125 33.2 141.725 41.5999 141.725 41.5999M126.125 64.2416C127.616 66.0672 129.013 67.4456 130.525 68.4048M130.525 68.4048C130.525 68.4048 123.82 78.8416 118.925 76C115.229 73.8536 116.525 67.02 116.525 67.02M132.125 60.4C127.027 64.3064 122.905 66.1608 116.525 67.02M116.525 67.02C114.309 67.3184 111.821 67.4976 108.925 67.6M145.515 41.6559C144.165 41.5942 142.962 41.6007 141.725 41.5999M64.3671 76.4C61.5975 84.6616 59.9647 91.8208 59.7503 96.248M115.897 110.319L154.525 120M115.897 110.319C113.874 113.53 111.598 116.445 109.142 118.4M59.7503 96.248C59.7335 96.5816 59.7255 96.8984 59.7255 97.2C59.7255 101.077 59.9663 104.172 60.5407 106.462M59.7503 96.248L51.3257 94.1368M51.3257 94.1368C43.0281 113.229 41.7429 130.187 44.9468 141.606M109.142 118.4C106.81 120.257 104.317 121.246 101.725 120.8C99.7111 120.453 98.3527 119.141 97.4871 117.2M96.3551 105.422C97.1343 95.38 100.561 83.9504 100.925 82.8C101.278 81.6896 87.3255 79.6 85.7255 81.2C84.7919 82.1344 79.9039 91.9296 75.0423 100.081M96.3551 105.422L75.0423 100.081M96.3551 105.422C95.9991 110.008 96.1951 114.304 97.4871 117.2M75.0423 100.081C71.5759 105.892 68.1231 110.867 66.1255 111.2C63.1863 111.69 61.4471 110.08 60.5407 106.462M97.4871 117.2C90.0431 133.382 82.3615 144.007 75.2055 150.109M60.5407 106.462C53.9846 121.88 52.2545 134.646 53.7112 144.068M44.9468 141.606C49.1668 156.644 61.1743 162.073 75.2055 150.109M75.2055 150.109L53.7112 144.068M24.9257 124V127.6M23.7257 152V156.4M147.325 126.8V130.8M140.525 134.8V139.2M147.325 139.2V143.2M176.125 171.6L179.725 169.6M173.725 179.6L176.925 178M110.925 38V44.4M120.525 38V44.4M168.925 43.2C175.694 37.0489 179.238 34.1815 184.126 32.4M174.925 51.2C182.533 50.3498 186.2 50.1099 190.926 50.4M172.525 61.2C178.973 61.5416 182.258 62.284 187.726 64.2416" stroke="black" stroke-width="4" stroke-linecap="round"/>
</svg>
