<svg width="48" height="46" viewBox="0 0 48 46" fill="none" xmlns="http://www.w3.org/2000/svg">
<path d="M24.5839 11.9149C24.4234 13.9544 24.5175 16.0069 24.7881 18.0355C26.2633 29.0939 31.1607 19.379 29.2791 9.97664" stroke="black" stroke-opacity="0.9" stroke-width="3" stroke-linecap="round" stroke-linejoin="round"/>
<path d="M31.2855 8.52768C32.9922 7.4112 44.6895 -0.833473 45.5364 3.39926C46.4569 7.9984 37.0719 12.5453 34.6537 15.5664C29.346 22.1973 30.4589 33.7504 33.4289 41.1714" stroke="black" stroke-opacity="0.9" stroke-width="3" stroke-linecap="round" stroke-linejoin="round"/>
<path d="M22.2011 18.6267C17.7229 25.1858 14.8461 32.4293 13.3213 40.0491" stroke="black" stroke-opacity="0.9" stroke-width="3" stroke-linecap="round" stroke-linejoin="round"/>
<path d="M21.9972 31.3781C24.041 29.5114 29.2325 31.0011 28.0193 34.2346C27.2351 36.324 25.0743 38.4174 23.4261 39.8451C22.8402 40.3526 22.1156 40.879 21.3847 41.1714C21.2145 41.2394 20.7449 41.2459 20.8743 41.3754C21.1681 41.6688 28.4625 39.4749 28.8357 40.9674C29.0055 41.6461 23.481 43.2821 22.8137 43.4157C19.3447 44.109 15.209 43.9933 12.1986 41.9874C11.5301 41.5421 11.3159 40.5152 10.7695 40.1514C10.7021 40.1064 4.97081 43.9371 2.3999 42.3955" stroke="black" stroke-opacity="0.9" stroke-width="3" stroke-linecap="round" stroke-linejoin="round"/>
<path d="M32.7397 9.54896C32.8345 9.84832 33.0748 10.081 33.2725 10.3181" stroke="black" stroke-opacity="0.9" stroke-width="3" stroke-linecap="round" stroke-linejoin="round"/>
<path d="M44.4077 3.27942C48.1103 2.80486 41.2663 6.33694 44.1608 3.44386" stroke="black" stroke-opacity="0.9" stroke-width="3" stroke-linecap="round" stroke-linejoin="round"/>
</svg>
