<svg width="77" height="85" viewBox="0 0 77 85" fill="none" xmlns="http://www.w3.org/2000/svg">
<path d="M29.7307 30.0494C31.9283 22.8179 33.7252 17.4075 35.1216 13.8178C37.2161 8.43344 41.9906 1.01494 41.9906 2.99529C41.9906 4.97567 49.6207 29.459 50.9077 30.0494C52.1948 30.6395 74.6284 30.2375 74.3753 31.235C74.1225 32.2325 74.4307 32.4828 71.6413 34.1185C69.7818 35.2087 63.2527 39.9818 52.0541 48.4373C51.3945 48.7125 51.4617 49.5481 52.2555 50.9442C53.4463 53.0384 56.8722 64.4986 58.1084 68.0742C59.3446 71.6501 61.8676 81.2446 60.606 82.2274C59.3446 83.2105 53.3118 77.0014 52.0541 75.6152C50.7964 74.2287 41.9906 57.6957 39.7066 57.6957C37.4226 57.6957 32.3156 64.9785 31.1969 66.291C30.0779 67.6035 18.4202 81.1098 14.2401 81.6686C10.0596 82.2274 11.4097 78.8123 14.2401 73.4434C16.1269 69.8638 19.8853 61.5148 25.5155 48.3958C22.6877 47.1316 20.1799 46.1459 17.9922 45.4383C14.711 44.3769 4.3482 40.9386 2.8996 40.5036C1.45096 40.0682 5.99241 38.1105 9.35724 36.1144C12.7222 34.1185 20.1466 31.235 24.3618 31.235" stroke="black" stroke-opacity="0.9" stroke-width="4.52" stroke-linecap="round" stroke-linejoin="round"/>
</svg>
