<svg width="51" height="41" viewBox="0 0 51 41" fill="none" xmlns="http://www.w3.org/2000/svg">
<path d="M32.7901 18.7643C35.5705 17.6291 33.3499 24.5196 32.064 20.1113" stroke="black" stroke-width="2" stroke-linecap="round" stroke-linejoin="round"/>
<path d="M25.8779 15.4575C32.1094 2.17771 46.1179 12.4585 40.3069 25.1141C36.5162 33.3703 25.5301 29.754 26.2004 20.9882" stroke="black" stroke-width="2" stroke-linecap="round" stroke-linejoin="round"/>
<path d="M18.9952 14.5813C25.8101 -4.12427 48.4123 -2.15632 49.8919 19.9065C50.2749 25.6149 48.2187 32.5085 43.7646 36.3264C32.7892 45.7321 12.7197 31.7236 17.0968 18.2204" stroke="black" stroke-width="2" stroke-linecap="round" stroke-linejoin="round"/>
<path d="M27.4482 19.4342C18.6957 15.305 9.79406 11.8409 1.04492 7.96045" stroke="black" stroke-opacity="0.9" stroke-width="2" stroke-linecap="round" stroke-linejoin="round"/>
<path d="M23.6063 13.3115C26.3571 15.7216 29.1525 19.0975 29.1525 19.0975C29.1525 19.0975 27.0099 20.6278 22.9214 20.89" stroke="black" stroke-opacity="0.9" stroke-width="2" stroke-linecap="round" stroke-linejoin="round"/>
</svg>
