<svg width="778" height="94" viewBox="0 0 778 94" fill="none" xmlns="http://www.w3.org/2000/svg">
<path d="M9.05445 90.8177C9.20672 90.5663 77.1015 48.8778 77.1015 47.2731C77.1015 45.7069 2.96019 5.41939 2.9878 5.14306C3.02935 4.67309 3.14911 4.20198 3.27041 3.73201C3.32667 3.49645 3.34293 3.25864 3.39352 3.02195C7.54179 2.97665 11.719 2.96306 15.8654 2.90984C20.5787 2.84982 25.2828 2.77959 29.9891 2.72071C39.47 2.5984 48.9458 2.71391 58.405 2.79885C67.9587 2.88491 77.4959 2.93702 87.0637 2.95853C97.1318 2.97892 107.209 2.99251 117.277 2.95853C135.881 2.89625 211.204 3.04573 215.844 3.00496C220.175 2.96759 224.485 2.92342 228.821 2.9087C237.674 2.87925 732.604 2.87812 741.456 2.91096C746.693 2.92908 751.919 2.93587 757.158 2.93474C759.499 2.93474 761.848 2.92568 764.199 2.91322C765.012 2.90869 765.827 2.89964 766.646 2.89171C766.878 3.06498 767.079 3.23939 767.304 3.40813C767.621 3.64594 767.879 3.88375 768.129 4.12157C768.597 4.78973 693.307 46.443 693.629 47.9062C693.926 49.2787 773.333 86.8744 773.885 87.7917C774.29 88.4814 774.742 89.4315 774.522 90.1246C770.011 90.1937 765.784 90.2084 761.538 90.2458C759.218 90.2662 614.987 87.6615 462.64 87.7917C274.869 87.9525 71.5262 90.8573 67.2311 90.9015C63.3236 90.9434 59.4182 90.9819 55.5056 91" fill="#E9DACE"/>
<path d="M9.05445 90.8177C9.20672 90.5663 77.1015 48.8778 77.1015 47.2731C77.1015 45.7069 2.96019 5.41939 2.9878 5.14306C3.02935 4.67309 3.14911 4.20198 3.27041 3.73201C3.32667 3.49645 3.34293 3.25864 3.39352 3.02195C7.54179 2.97665 11.719 2.96306 15.8654 2.90984C20.5787 2.84982 25.2828 2.77959 29.9891 2.72071C39.47 2.5984 48.9458 2.71391 58.405 2.79885C67.9587 2.88491 77.4959 2.93702 87.0637 2.95853C97.1318 2.97892 107.209 2.99251 117.277 2.95853C135.881 2.89625 211.204 3.04573 215.844 3.00496C220.175 2.96759 224.485 2.92342 228.821 2.9087C237.674 2.87925 732.604 2.87812 741.456 2.91096C746.693 2.92908 751.919 2.93587 757.158 2.93474C759.499 2.93474 761.848 2.92568 764.199 2.91322C765.012 2.90869 765.827 2.89964 766.646 2.89171C766.878 3.06498 767.079 3.23939 767.304 3.40813C767.621 3.64594 767.879 3.88375 768.129 4.12157C768.597 4.78973 693.307 46.443 693.629 47.9062C693.926 49.2787 773.333 86.8744 773.885 87.7917C774.29 88.4814 774.742 89.4315 774.522 90.1246C770.011 90.1937 765.784 90.2084 761.538 90.2458C759.218 90.2662 614.987 87.6615 462.64 87.7917C274.869 87.9525 71.5262 90.8573 67.2311 90.9015C63.3236 90.9434 59.4182 90.9819 55.5056 91" stroke="#55463A" stroke-width="5" stroke-linecap="round" stroke-linejoin="round"/>
</svg>
