<svg width="763" height="98" viewBox="0 0 763 98" fill="none" xmlns="http://www.w3.org/2000/svg">
<path d="M47.7423 5.99393C138.968 6.05822 243.239 5.6967 360.555 4.90815C536.529 3.72533 760.352 0.714285 760.352 7.09668C760.352 13.4803 760.352 20.3443 760.352 26.1153C760.352 31.885 760.352 65.4723 760.352 70.866C760.352 76.2597 760.352 85.8157 760.352 90.0787C760.352 94.3405 741.059 94.3405 692.041 94.3405C643.024 94.3405 50.077 96.0741 23.6576 94.3405C-2.76196 92.6069 3.91074 39.3362 3.91074 34.5321C3.91074 29.728 3.91074 23.2571 3.91074 19.6346" fill="#ECF0B0"/>
<path d="M47.7423 5.99393C138.968 6.05822 243.239 5.6967 360.555 4.90815C536.529 3.72533 760.352 0.714285 760.352 7.09668C760.352 13.4803 760.352 20.3443 760.352 26.1153C760.352 31.885 760.352 65.4723 760.352 70.866C760.352 76.2597 760.352 85.8157 760.352 90.0787C760.352 94.3405 741.059 94.3405 692.041 94.3405C643.024 94.3405 50.077 96.0741 23.6576 94.3405C-2.76196 92.6069 3.91074 39.3362 3.91074 34.5321C3.91074 29.728 3.91074 23.2571 3.91074 19.6346" stroke="#434433" stroke-width="5" stroke-linecap="round" stroke-linejoin="round"/>
</svg>
