<svg width="778" height="94" viewBox="0 0 778 94" fill="none" xmlns="http://www.w3.org/2000/svg">
<path d="M9.05445 90.8177C9.20672 90.5663 77.1015 48.8779 77.1015 47.2732C77.1015 45.707 2.96019 5.4194 2.9878 5.14308C3.02935 4.67311 3.14911 4.202 3.27041 3.73202C3.32667 3.49647 3.34293 3.25865 3.39352 3.02197C7.54179 2.97667 11.719 2.96308 15.8654 2.90985C20.5787 2.84983 25.2828 2.77961 29.9891 2.72072C39.47 2.59841 48.9458 2.71393 58.405 2.79886C67.9587 2.88493 77.4959 2.93703 87.0637 2.95855C97.1318 2.97893 107.209 2.99252 117.277 2.95855C135.881 2.89626 211.204 3.04575 215.844 3.00498C220.175 2.96761 224.485 2.92343 228.821 2.90871C237.674 2.87927 732.604 2.87813 741.456 2.91098C746.693 2.92909 751.919 2.93589 757.158 2.93475C759.499 2.93475 761.848 2.9257 764.199 2.91324C765.012 2.90871 765.827 2.89965 766.646 2.89173C766.878 3.06499 767.079 3.2394 767.304 3.40814C767.621 3.64596 767.879 3.88377 768.129 4.12158C768.597 4.78974 693.307 46.4431 693.629 47.9062C693.926 49.2788 773.333 86.8744 773.885 87.7917C774.29 88.4814 774.742 89.4316 774.522 90.1246C770.011 90.1937 765.784 90.2084 761.538 90.2458C759.218 90.2662 614.987 87.6615 462.64 87.7917C274.869 87.9526 71.5262 90.8573 67.2311 90.9015C63.3236 90.9434 59.4182 90.9819 55.5056 91" fill="#ECF0B0"/>
<path d="M9.05445 90.8177C9.20672 90.5663 77.1015 48.8779 77.1015 47.2732C77.1015 45.707 2.96019 5.4194 2.9878 5.14308C3.02935 4.67311 3.14911 4.202 3.27041 3.73202C3.32667 3.49647 3.34293 3.25865 3.39352 3.02197C7.54179 2.97667 11.719 2.96308 15.8654 2.90985C20.5787 2.84983 25.2828 2.77961 29.9891 2.72072C39.47 2.59841 48.9458 2.71393 58.405 2.79886C67.9587 2.88493 77.4959 2.93703 87.0637 2.95855C97.1318 2.97893 107.209 2.99252 117.277 2.95855C135.881 2.89626 211.204 3.04575 215.844 3.00498C220.175 2.96761 224.485 2.92343 228.821 2.90871C237.674 2.87927 732.604 2.87813 741.456 2.91098C746.693 2.92909 751.919 2.93589 757.158 2.93475C759.499 2.93475 761.848 2.9257 764.199 2.91324C765.012 2.90871 765.827 2.89965 766.646 2.89173C766.878 3.06499 767.079 3.2394 767.304 3.40814C767.621 3.64596 767.879 3.88377 768.129 4.12158C768.597 4.78974 693.307 46.4431 693.629 47.9062C693.926 49.2788 773.333 86.8744 773.885 87.7917C774.29 88.4814 774.742 89.4316 774.522 90.1246C770.011 90.1937 765.784 90.2084 761.538 90.2458C759.218 90.2662 614.987 87.6615 462.64 87.7917C274.869 87.9526 71.5262 90.8573 67.2311 90.9015C63.3236 90.9434 59.4182 90.9819 55.5056 91" stroke="#434433" stroke-width="5" stroke-linecap="round" stroke-linejoin="round"/>
</svg>
