<svg width="883" height="626" viewBox="0 0 883 626" fill="none" xmlns="http://www.w3.org/2000/svg">
<path d="M875.697 569.796C875.697 566.831 870.3 432.07 870.819 293.743C871.328 157.93 877.827 18.5007 870.01 16.2857C854.232 11.8151 456.907 16.2857 376.423 16.2857C295.938 16.2857 24.0444 4.50981 24.0444 6.71947C24.0444 8.92912 12.9985 399.611 12.9985 410.093C12.9985 420.572 24.3015 619.212 321.197 614.472C618.089 609.732 848.272 619.316 858.976 620.236" fill="#ECEEFA"/>
<path d="M875.697 569.796C875.697 566.831 870.3 432.07 870.819 293.743C871.328 157.93 877.827 18.5007 870.01 16.2857C854.232 11.8151 456.907 16.2857 376.423 16.2857C295.938 16.2857 24.0443 4.50981 24.0443 6.71947C24.0443 8.92912 12.9985 399.611 12.9985 410.093C12.9985 420.572 24.3015 619.212 321.197 614.472C618.089 609.732 848.272 619.316 858.976 620.236" stroke="#273274" stroke-width="7" stroke-linecap="round" stroke-linejoin="round"/>
<path d="M279.947 611.866C250.462 594.767 234.028 575.362 222.722 534.933C215.186 507.982 219.18 479.686 234.702 450.048C208.652 482.934 178.764 501.978 145.04 507.184C94.4503 514.993 42.161 513.473 29.2758 481.762" fill="#ECEEFA"/>
<path d="M279.947 611.866C250.462 594.767 234.028 575.362 222.722 534.933C215.186 507.982 219.18 479.686 234.702 450.048C208.652 482.934 178.764 501.978 145.04 507.184C94.4503 514.993 42.161 513.473 29.2758 481.762" stroke="#273274" stroke-width="7" stroke-linecap="round" stroke-linejoin="round"/>
<path d="M363.88 359.455C362.762 359.771 332.5 388.667 328 392.968C316.5 381.355 305.433 361.952 286.882 358.583C285.129 358.262 210.779 370.598 188.225 351.902C165.671 333.204 161.516 121.984 191.916 107.432C222.315 92.8805 767.484 81.6022 796.232 105.382C809.736 116.552 822.159 328.684 796.552 342.026C735.188 371.005 509.632 354.431 401.023 358.606" fill="#ECF0B0"/>
<path d="M363.88 359.455C362.762 359.771 332.5 388.667 328 392.968C316.5 381.355 305.433 361.952 286.882 358.583C285.129 358.262 210.779 370.598 188.225 351.902C165.671 333.204 161.516 121.984 191.916 107.432C222.315 92.8805 767.484 81.6022 796.232 105.382C809.736 116.552 822.159 328.684 796.552 342.026C735.188 371.005 509.632 354.431 401.023 358.606" stroke="black" stroke-opacity="0.9" stroke-width="5" stroke-linecap="round" stroke-linejoin="round"/>
<path d="M218.175 163.3L213.875 154.425C213.867 154.4 213.854 154.367 213.838 154.325C213.821 154.275 213.8 154.208 213.775 154.125C213.775 154.2 213.775 154.267 213.775 154.325C213.775 154.383 213.775 154.425 213.775 154.45V163H209.825V145.5H213.85L217.85 154.2C217.942 154.383 218.021 154.558 218.088 154.725C218.154 154.883 218.217 155.058 218.275 155.25C218.342 155.058 218.404 154.875 218.463 154.7C218.529 154.525 218.6 154.358 218.675 154.2L222.825 145.5H226.5V163H222.55V154.425C222.55 154.375 222.55 154.321 222.55 154.262C222.55 154.204 222.55 154.158 222.55 154.125C222.525 154.175 222.5 154.225 222.475 154.275C222.458 154.317 222.442 154.35 222.425 154.375L218.175 163.3ZM230.188 163V150.225H233.938V154.4H237.638C238.538 154.4 239.329 154.583 240.013 154.95C240.696 155.308 241.229 155.812 241.613 156.462C241.996 157.104 242.188 157.85 242.188 158.7C242.188 159.542 241.992 160.287 241.6 160.937C241.217 161.579 240.683 162.083 240 162.45C239.317 162.817 238.529 163 237.638 163H230.188ZM233.938 159.975H237.138C237.529 159.975 237.842 159.854 238.075 159.612C238.317 159.362 238.438 159.058 238.438 158.7C238.438 158.325 238.317 158.021 238.075 157.787C237.842 157.546 237.529 157.425 237.138 157.425H233.938V159.975ZM244.913 163V150.225H248.663V163H244.913ZM313.266 157.475V154.175H323.141V157.475H313.266ZM390.757 161.05V156.25L395.607 150.225H399.607L390.757 161.05ZM387.732 163V150.225H391.482V163H387.732ZM396.132 163L392.682 156.65L395.107 153.65L400.232 163H396.132ZM407.705 163.3C405.871 163.3 404.426 162.708 403.367 161.525C402.309 160.333 401.78 158.7 401.78 156.625C401.78 155.258 402.021 154.075 402.505 153.075C402.988 152.067 403.671 151.292 404.555 150.75C405.446 150.2 406.496 149.925 407.705 149.925C408.905 149.925 409.942 150.2 410.817 150.75C411.701 151.292 412.38 152.062 412.855 153.062C413.338 154.062 413.58 155.25 413.58 156.625C413.58 158.008 413.342 159.2 412.867 160.2C412.401 161.192 411.726 161.958 410.842 162.5C409.967 163.033 408.921 163.3 407.705 163.3ZM407.705 159.675C408.396 159.675 408.926 159.412 409.292 158.887C409.667 158.354 409.855 157.6 409.855 156.625C409.855 155.65 409.663 154.896 409.28 154.362C408.905 153.821 408.38 153.55 407.705 153.55C407.03 153.55 406.496 153.825 406.105 154.375C405.721 154.925 405.53 155.675 405.53 156.625C405.53 157.575 405.721 158.321 406.105 158.862C406.496 159.404 407.03 159.675 407.705 159.675ZM423.685 163.225L420.86 157.775C420.801 157.65 420.722 157.483 420.622 157.275C420.531 157.067 420.451 156.883 420.385 156.725C420.401 156.9 420.41 157.071 420.41 157.237C420.41 157.396 420.41 157.525 420.41 157.625V163H416.785V150.225H420.285L423.26 156C423.335 156.15 423.41 156.304 423.485 156.462C423.568 156.621 423.635 156.758 423.685 156.875C423.735 156.758 423.797 156.621 423.872 156.462C423.956 156.304 424.035 156.15 424.11 156L427.085 150.225H430.585V163H426.96V157.875C426.96 157.775 426.96 157.604 426.96 157.362C426.968 157.112 426.976 156.9 426.985 156.725C426.91 156.875 426.818 157.058 426.71 157.275C426.61 157.483 426.526 157.65 426.46 157.775L423.685 163.225ZM438.09 163.3C436.682 163.3 435.565 162.929 434.74 162.187C433.923 161.437 433.515 160.433 433.515 159.175C433.515 158.35 433.732 157.625 434.165 157C434.607 156.375 435.215 155.892 435.99 155.55C436.773 155.2 437.682 155.025 438.715 155.025C439.232 155.025 439.74 155.067 440.24 155.15C440.748 155.225 441.165 155.333 441.49 155.475V154.75C441.49 154.208 441.303 153.792 440.928 153.5C440.561 153.2 440.04 153.05 439.365 153.05C438.732 153.05 438.082 153.162 437.415 153.387C436.757 153.612 436.057 153.958 435.315 154.425L434.165 151.55C434.957 151.025 435.828 150.625 436.778 150.35C437.736 150.067 438.715 149.925 439.715 149.925C441.557 149.925 442.932 150.346 443.84 151.187C444.757 152.021 445.215 153.275 445.215 154.95V163H441.49V162.075C441.107 162.475 440.623 162.779 440.04 162.987C439.465 163.196 438.815 163.3 438.09 163.3ZM439.065 160.175C439.532 160.175 439.969 160.104 440.378 159.962C440.794 159.812 441.165 159.6 441.49 159.325V158.275C441.182 158.158 440.844 158.071 440.478 158.012C440.111 157.954 439.732 157.925 439.34 157.925C438.665 157.925 438.136 158.033 437.753 158.25C437.378 158.458 437.19 158.758 437.19 159.15C437.19 159.475 437.353 159.729 437.678 159.912C438.003 160.087 438.465 160.175 439.065 160.175ZM448.694 163V150.225H452.444V154.775H457.919V150.225H461.669V163H457.919V158.075H452.444V163H448.694ZM464.067 167.325V159.7H465.417C465.709 159.533 465.913 159.3 466.029 159C466.154 158.7 466.242 158.333 466.292 157.9L467.167 150.225H477.992V159.7H479.442V165.675L475.717 167.325V163H467.792V165.675L464.067 167.325ZM469.442 159.7H474.267V153.525H470.417L469.867 158.225C469.834 158.508 469.779 158.771 469.704 159.012C469.629 159.254 469.542 159.483 469.442 159.7ZM486.015 163.3C484.607 163.3 483.49 162.929 482.665 162.187C481.848 161.437 481.44 160.433 481.44 159.175C481.44 158.35 481.657 157.625 482.09 157C482.532 156.375 483.14 155.892 483.915 155.55C484.698 155.2 485.607 155.025 486.64 155.025C487.157 155.025 487.665 155.067 488.165 155.15C488.673 155.225 489.09 155.333 489.415 155.475V154.75C489.415 154.208 489.227 153.792 488.852 153.5C488.486 153.2 487.965 153.05 487.29 153.05C486.657 153.05 486.007 153.162 485.34 153.387C484.682 153.612 483.982 153.958 483.24 154.425L482.09 151.55C482.882 151.025 483.752 150.625 484.702 150.35C485.661 150.067 486.64 149.925 487.64 149.925C489.482 149.925 490.857 150.346 491.765 151.187C492.682 152.021 493.14 153.275 493.14 154.95V163H489.415V162.075C489.032 162.475 488.548 162.779 487.965 162.987C487.39 163.196 486.74 163.3 486.015 163.3ZM486.99 160.175C487.457 160.175 487.894 160.104 488.302 159.962C488.719 159.812 489.09 159.6 489.415 159.325V158.275C489.107 158.158 488.769 158.071 488.402 158.012C488.036 157.954 487.657 157.925 487.265 157.925C486.59 157.925 486.061 158.033 485.677 158.25C485.302 158.458 485.115 158.758 485.115 159.15C485.115 159.475 485.277 159.729 485.602 159.912C485.927 160.087 486.39 160.175 486.99 160.175ZM558.106 163V150.225H565.731C566.781 150.225 567.61 150.396 568.218 150.737C568.835 151.071 569.272 151.504 569.531 152.037C569.797 152.562 569.931 153.117 569.931 153.7C569.931 154.35 569.806 154.887 569.556 155.312C569.314 155.737 568.972 156.083 568.531 156.35C569.197 156.6 569.668 157.008 569.943 157.575C570.218 158.142 570.356 158.675 570.356 159.175C570.356 159.792 570.21 160.396 569.918 160.987C569.635 161.571 569.172 162.054 568.531 162.437C567.889 162.812 567.031 163 565.956 163H558.106ZM561.856 160.25H565.081C565.422 160.25 565.702 160.2 565.918 160.1C566.135 160 566.293 159.862 566.393 159.687C566.502 159.512 566.556 159.308 566.556 159.075C566.556 158.858 566.502 158.662 566.393 158.487C566.293 158.312 566.135 158.175 565.918 158.075C565.702 157.975 565.422 157.925 565.081 157.925H561.856V160.25ZM561.856 155.175H564.881C565.281 155.175 565.589 155.075 565.806 154.875C566.022 154.667 566.131 154.4 566.131 154.075C566.131 153.858 566.081 153.667 565.981 153.5C565.889 153.333 565.747 153.204 565.556 153.112C565.372 153.021 565.147 152.975 564.881 152.975H561.856V155.175ZM578.811 163.3C576.978 163.3 575.532 162.708 574.473 161.525C573.415 160.333 572.886 158.7 572.886 156.625C572.886 155.258 573.128 154.075 573.611 153.075C574.094 152.067 574.778 151.292 575.661 150.75C576.553 150.2 577.603 149.925 578.811 149.925C580.011 149.925 581.048 150.2 581.923 150.75C582.807 151.292 583.486 152.062 583.961 153.062C584.444 154.062 584.686 155.25 584.686 156.625C584.686 158.008 584.448 159.2 583.973 160.2C583.507 161.192 582.832 161.958 581.948 162.5C581.073 163.033 580.028 163.3 578.811 163.3ZM578.811 159.675C579.503 159.675 580.032 159.412 580.398 158.887C580.773 158.354 580.961 157.6 580.961 156.625C580.961 155.65 580.769 154.896 580.386 154.362C580.011 153.821 579.486 153.55 578.811 153.55C578.136 153.55 577.603 153.825 577.211 154.375C576.828 154.925 576.636 155.675 576.636 156.625C576.636 157.575 576.828 158.321 577.211 158.862C577.603 159.404 578.136 159.675 578.811 159.675ZM588.241 163.3L586.366 160.375C587.133 160.233 587.683 160 588.016 159.675C588.358 159.35 588.566 158.875 588.641 158.25L589.566 150.225H600.541V163H596.791V153.525H592.941L592.241 159.45C592.108 160.575 591.704 161.45 591.029 162.075C590.362 162.692 589.433 163.1 588.241 163.3ZM609.67 163.3C607.837 163.3 606.391 162.708 605.333 161.525C604.275 160.333 603.745 158.7 603.745 156.625C603.745 155.258 603.987 154.075 604.47 153.075C604.954 152.067 605.637 151.292 606.52 150.75C607.412 150.2 608.462 149.925 609.67 149.925C610.87 149.925 611.908 150.2 612.783 150.75C613.666 151.292 614.345 152.062 614.82 153.062C615.304 154.062 615.545 155.25 615.545 156.625C615.545 158.008 615.308 159.2 614.833 160.2C614.366 161.192 613.691 161.958 612.808 162.5C611.933 163.033 610.887 163.3 609.67 163.3ZM609.67 159.675C610.362 159.675 610.891 159.412 611.258 158.887C611.633 158.354 611.82 157.6 611.82 156.625C611.82 155.65 611.629 154.896 611.245 154.362C610.87 153.821 610.345 153.55 609.67 153.55C608.995 153.55 608.462 153.825 608.07 154.375C607.687 154.925 607.495 155.675 607.495 156.625C607.495 157.575 607.687 158.321 608.07 158.862C608.462 159.404 608.995 159.675 609.67 159.675ZM618.75 163V150.225H622.5V154.775H627.975V150.225H631.725V163H627.975V158.075H622.5V163H618.75ZM637.798 163V153.525H634.123V150.225H645.223V153.525H641.548V163H637.798ZM653.18 163.3C651.914 163.3 650.822 163.033 649.905 162.5C648.997 161.967 648.297 161.2 647.805 160.2C647.322 159.2 647.08 158 647.08 156.6C647.08 155.242 647.326 154.062 647.818 153.062C648.318 152.062 649.022 151.292 649.93 150.75C650.847 150.2 651.93 149.925 653.18 149.925C654.264 149.925 655.239 150.146 656.105 150.587C656.98 151.021 657.672 151.687 658.18 152.587C658.697 153.479 658.955 154.608 658.955 155.975C658.955 156.208 658.951 156.5 658.943 156.85C658.934 157.192 658.905 157.533 658.855 157.875H650.73C650.73 158.333 650.83 158.733 651.03 159.075C651.23 159.408 651.514 159.667 651.88 159.85C652.247 160.033 652.68 160.125 653.18 160.125C653.83 160.125 654.372 160.021 654.805 159.812C655.247 159.604 655.672 159.258 656.08 158.775L658.23 160.925C657.63 161.65 656.918 162.229 656.093 162.662C655.268 163.087 654.297 163.3 653.18 163.3ZM650.78 155.075H655.38C655.314 154.633 655.184 154.267 654.993 153.975C654.801 153.683 654.547 153.467 654.23 153.325C653.914 153.175 653.53 153.1 653.08 153.1C652.472 153.1 651.959 153.275 651.543 153.625C651.126 153.975 650.872 154.458 650.78 155.075ZM661.939 168.075V150.225H665.689V151.075C666.247 150.308 667.08 149.925 668.189 149.925C669.289 149.925 670.235 150.196 671.026 150.737C671.818 151.271 672.426 152.037 672.851 153.037C673.276 154.037 673.489 155.233 673.489 156.625C673.489 157.95 673.264 159.112 672.814 160.112C672.364 161.112 671.735 161.896 670.926 162.462C670.126 163.021 669.197 163.3 668.139 163.3C667.605 163.3 667.13 163.204 666.714 163.013C666.305 162.829 665.964 162.558 665.689 162.2V166.4L661.939 168.075ZM667.539 159.675C668.239 159.675 668.78 159.408 669.164 158.875C669.547 158.333 669.739 157.583 669.739 156.625C669.739 155.625 669.551 154.862 669.176 154.337C668.801 153.812 668.255 153.55 667.539 153.55C667.13 153.55 666.78 153.604 666.489 153.712C666.205 153.821 665.939 154 665.689 154.25V158.925C665.764 159.133 665.976 159.312 666.326 159.462C666.685 159.604 667.089 159.675 667.539 159.675ZM681.887 163.3C680.054 163.3 678.608 162.708 677.55 161.525C676.491 160.333 675.962 158.7 675.962 156.625C675.962 155.258 676.204 154.075 676.687 153.075C677.17 152.067 677.854 151.292 678.737 150.75C679.629 150.2 680.679 149.925 681.887 149.925C683.087 149.925 684.125 150.2 685 150.75C685.883 151.292 686.562 152.062 687.037 153.062C687.52 154.062 687.762 155.25 687.762 156.625C687.762 158.008 687.525 159.2 687.05 160.2C686.583 161.192 685.908 161.958 685.025 162.5C684.15 163.033 683.104 163.3 681.887 163.3ZM681.887 159.675C682.579 159.675 683.108 159.412 683.475 158.887C683.85 158.354 684.037 157.6 684.037 156.625C684.037 155.65 683.845 154.896 683.462 154.362C683.087 153.821 682.562 153.55 681.887 153.55C681.212 153.55 680.679 153.825 680.287 154.375C679.904 154.925 679.712 155.675 679.712 156.625C679.712 157.575 679.904 158.321 680.287 158.862C680.679 159.404 681.212 159.675 681.887 159.675ZM690.967 163V150.225H698.592C699.642 150.225 700.471 150.396 701.08 150.737C701.696 151.071 702.134 151.504 702.392 152.037C702.659 152.562 702.792 153.117 702.792 153.7C702.792 154.35 702.667 154.887 702.417 155.312C702.175 155.737 701.834 156.083 701.392 156.35C702.059 156.6 702.53 157.008 702.805 157.575C703.08 158.142 703.217 158.675 703.217 159.175C703.217 159.792 703.071 160.396 702.78 160.987C702.496 161.571 702.034 162.054 701.392 162.437C700.75 162.812 699.892 163 698.817 163H690.967ZM694.717 160.25H697.942C698.284 160.25 698.563 160.2 698.78 160.1C698.996 160 699.155 159.862 699.255 159.687C699.363 159.512 699.417 159.308 699.417 159.075C699.417 158.858 699.363 158.662 699.255 158.487C699.155 158.312 698.996 158.175 698.78 158.075C698.563 157.975 698.284 157.925 697.942 157.925H694.717V160.25ZM694.717 155.175H697.742C698.142 155.175 698.45 155.075 698.667 154.875C698.884 154.667 698.992 154.4 698.992 154.075C698.992 153.858 698.942 153.667 698.842 153.5C698.75 153.333 698.609 153.204 698.417 153.112C698.234 153.021 698.009 152.975 697.742 152.975H694.717V155.175ZM767.933 163V150.225H771.683V156.675L776.383 150.225H780.133V163H776.383V156.575L771.683 163H767.933ZM194.875 195V182.225H198.625V186.775H204.1V182.225H207.85V195H204.1V190.075H198.625V195H194.875ZM217.098 195.3C215.831 195.3 214.74 195.033 213.823 194.5C212.915 193.967 212.215 193.2 211.723 192.2C211.24 191.2 210.998 190 210.998 188.6C210.998 187.242 211.244 186.062 211.736 185.062C212.236 184.062 212.94 183.292 213.848 182.75C214.765 182.2 215.848 181.925 217.098 181.925C218.181 181.925 219.156 182.146 220.023 182.587C220.898 183.021 221.59 183.687 222.098 184.587C222.615 185.479 222.873 186.608 222.873 187.975C222.873 188.208 222.869 188.5 222.861 188.85C222.852 189.192 222.823 189.533 222.773 189.875H214.648C214.648 190.333 214.748 190.733 214.948 191.075C215.148 191.408 215.431 191.667 215.798 191.85C216.165 192.033 216.598 192.125 217.098 192.125C217.748 192.125 218.29 192.021 218.723 191.812C219.165 191.604 219.59 191.258 219.998 190.775L222.148 192.925C221.548 193.65 220.836 194.229 220.011 194.662C219.186 195.087 218.215 195.3 217.098 195.3ZM214.698 187.075H219.298C219.231 186.633 219.102 186.267 218.911 185.975C218.719 185.683 218.465 185.467 218.148 185.325C217.831 185.175 217.448 185.1 216.998 185.1C216.39 185.1 215.877 185.275 215.461 185.625C215.044 185.975 214.79 186.458 214.698 187.075ZM225.856 200.075V182.225H229.606V183.075C230.165 182.308 230.998 181.925 232.106 181.925C233.206 181.925 234.152 182.196 234.944 182.737C235.736 183.271 236.344 184.037 236.769 185.037C237.194 186.037 237.406 187.233 237.406 188.625C237.406 189.95 237.181 191.112 236.731 192.112C236.281 193.112 235.652 193.896 234.844 194.462C234.044 195.021 233.115 195.3 232.056 195.3C231.523 195.3 231.048 195.204 230.631 195.013C230.223 194.829 229.881 194.558 229.606 194.2V198.4L225.856 200.075ZM231.456 191.675C232.156 191.675 232.698 191.408 233.081 190.875C233.465 190.333 233.656 189.583 233.656 188.625C233.656 187.625 233.469 186.862 233.094 186.337C232.719 185.812 232.173 185.55 231.456 185.55C231.048 185.55 230.698 185.604 230.406 185.712C230.123 185.821 229.856 186 229.606 186.25V190.925C229.681 191.133 229.894 191.312 230.244 191.462C230.602 191.604 231.006 191.675 231.456 191.675ZM244.305 195.3C242.897 195.3 241.78 194.929 240.955 194.187C240.139 193.437 239.73 192.433 239.73 191.175C239.73 190.35 239.947 189.625 240.38 189C240.822 188.375 241.43 187.892 242.205 187.55C242.989 187.2 243.897 187.025 244.93 187.025C245.447 187.025 245.955 187.067 246.455 187.15C246.964 187.225 247.38 187.333 247.705 187.475V186.75C247.705 186.208 247.518 185.792 247.143 185.5C246.776 185.2 246.255 185.05 245.58 185.05C244.947 185.05 244.297 185.162 243.63 185.387C242.972 185.612 242.272 185.958 241.53 186.425L240.38 183.55C241.172 183.025 242.043 182.625 242.993 182.35C243.951 182.067 244.93 181.925 245.93 181.925C247.772 181.925 249.147 182.346 250.055 183.187C250.972 184.021 251.43 185.275 251.43 186.95V195H247.705V194.075C247.322 194.475 246.839 194.779 246.255 194.987C245.68 195.196 245.03 195.3 244.305 195.3ZM245.28 192.175C245.747 192.175 246.185 192.104 246.593 191.962C247.01 191.812 247.38 191.6 247.705 191.325V190.275C247.397 190.158 247.06 190.071 246.693 190.012C246.326 189.954 245.947 189.925 245.555 189.925C244.88 189.925 244.351 190.033 243.968 190.25C243.593 190.458 243.405 190.758 243.405 191.15C243.405 191.475 243.568 191.729 243.893 191.912C244.218 192.087 244.68 192.175 245.28 192.175ZM254.909 195V182.225H262.534C263.584 182.225 264.413 182.396 265.022 182.737C265.638 183.071 266.076 183.504 266.334 184.037C266.601 184.562 266.734 185.117 266.734 185.7C266.734 186.35 266.609 186.887 266.359 187.312C266.118 187.737 265.776 188.083 265.334 188.35C266.001 188.6 266.472 189.008 266.747 189.575C267.022 190.142 267.159 190.675 267.159 191.175C267.159 191.792 267.013 192.396 266.722 192.987C266.438 193.571 265.976 194.054 265.334 194.437C264.693 194.812 263.834 195 262.759 195H254.909ZM258.659 192.25H261.884C262.226 192.25 262.505 192.2 262.722 192.1C262.938 192 263.097 191.862 263.197 191.687C263.305 191.512 263.359 191.308 263.359 191.075C263.359 190.858 263.305 190.662 263.197 190.487C263.097 190.312 262.938 190.175 262.722 190.075C262.505 189.975 262.226 189.925 261.884 189.925H258.659V192.25ZM258.659 187.175H261.684C262.084 187.175 262.393 187.075 262.609 186.875C262.826 186.667 262.934 186.4 262.934 186.075C262.934 185.858 262.884 185.667 262.784 185.5C262.693 185.333 262.551 185.204 262.359 185.112C262.176 185.021 261.951 184.975 261.684 184.975H258.659V187.175ZM270.339 195V182.225H274.089V186.775H279.564V182.225H283.314V195H279.564V190.075H274.089V195H270.339ZM292.387 195.3C290.554 195.3 289.108 194.708 288.049 193.525C286.991 192.333 286.462 190.7 286.462 188.625C286.462 187.258 286.704 186.075 287.187 185.075C287.67 184.067 288.354 183.292 289.237 182.75C290.129 182.2 291.179 181.925 292.387 181.925C293.587 181.925 294.624 182.2 295.499 182.75C296.383 183.292 297.062 184.062 297.537 185.062C298.02 186.062 298.262 187.25 298.262 188.625C298.262 190.008 298.024 191.2 297.549 192.2C297.083 193.192 296.408 193.958 295.524 194.5C294.649 195.033 293.604 195.3 292.387 195.3ZM292.387 191.675C293.079 191.675 293.608 191.412 293.974 190.887C294.349 190.354 294.537 189.6 294.537 188.625C294.537 187.65 294.345 186.896 293.962 186.362C293.587 185.821 293.062 185.55 292.387 185.55C291.712 185.55 291.179 185.825 290.787 186.375C290.404 186.925 290.212 187.675 290.212 188.625C290.212 189.575 290.404 190.321 290.787 190.862C291.179 191.404 291.712 191.675 292.387 191.675ZM300.092 199.325V191.7H301.442C301.733 191.533 301.938 191.3 302.054 191C302.179 190.7 302.267 190.333 302.317 189.9L303.192 182.225H314.017V191.7H315.467V197.675L311.742 199.325V195H303.817V197.675L300.092 199.325ZM305.467 191.7H310.292V185.525H306.442L305.892 190.225C305.858 190.508 305.804 190.771 305.729 191.012C305.654 191.254 305.567 191.483 305.467 191.7ZM319.645 199.85L321.57 194.85L316.745 182.225H320.645L323.17 188.875C323.237 189.025 323.308 189.212 323.383 189.437C323.458 189.662 323.52 189.875 323.57 190.075C323.62 189.875 323.683 189.667 323.758 189.45C323.841 189.225 323.912 189.033 323.97 188.875L326.47 182.225H330.345L323.545 199.85H319.645ZM332.79 195V182.225H336.54V191.7H339.89V182.225H343.64V191.7H346.99V182.225H350.74V195H332.79ZM354.421 195V182.225H358.171V186.775H363.646V182.225H367.396V195H363.646V190.075H358.171V195H354.421ZM371.071 195V182.225H374.821V186.4H378.521C379.421 186.4 380.213 186.583 380.896 186.95C381.58 187.308 382.113 187.812 382.496 188.462C382.88 189.104 383.071 189.85 383.071 190.7C383.071 191.542 382.875 192.287 382.484 192.937C382.1 193.579 381.567 194.083 380.884 194.45C380.2 194.817 379.413 195 378.521 195H371.071ZM374.821 191.975H378.021C378.413 191.975 378.725 191.854 378.959 191.612C379.2 191.362 379.321 191.058 379.321 190.7C379.321 190.325 379.2 190.021 378.959 189.787C378.725 189.546 378.413 189.425 378.021 189.425H374.821V191.975ZM385.796 195V182.225H389.546V195H385.796ZM392.014 195L396.914 188.4L392.314 182.225H396.689L398.289 184.375C398.43 184.558 398.58 184.762 398.739 184.987C398.905 185.212 399.022 185.408 399.089 185.575C399.18 185.408 399.297 185.212 399.439 184.987C399.589 184.754 399.73 184.55 399.864 184.375L401.514 182.225H405.889L401.289 188.4L406.189 195H401.814L399.864 192.45C399.73 192.275 399.589 192.071 399.439 191.837C399.297 191.604 399.18 191.408 399.089 191.25C399.022 191.408 398.901 191.604 398.726 191.837C398.56 192.071 398.414 192.271 398.289 192.437L396.389 195H392.014ZM439.652 195.3L437.777 192.375C438.544 192.233 439.094 192 439.427 191.675C439.769 191.35 439.977 190.875 440.052 190.25L440.977 182.225H451.952V195H448.202V185.525H444.352L443.652 191.45C443.519 192.575 443.115 193.45 442.44 194.075C441.773 194.692 440.844 195.1 439.652 195.3ZM468.26 195.3C466.726 195.3 465.456 194.875 464.447 194.025C463.439 193.167 462.785 191.958 462.485 190.4H459.385V195H455.635V182.225H459.385V186.8H462.51C462.81 185.258 463.46 184.062 464.46 183.212C465.468 182.354 466.735 181.925 468.26 181.925C469.46 181.925 470.497 182.2 471.372 182.75C472.256 183.292 472.935 184.062 473.41 185.062C473.893 186.062 474.135 187.25 474.135 188.625C474.135 190.725 473.606 192.362 472.547 193.537C471.489 194.712 470.06 195.3 468.26 195.3ZM468.26 191.675C468.951 191.675 469.481 191.408 469.847 190.875C470.222 190.333 470.41 189.583 470.41 188.625C470.41 187.658 470.222 186.904 469.847 186.362C469.481 185.821 468.951 185.55 468.26 185.55C467.601 185.55 467.072 185.821 466.672 186.362C466.281 186.904 466.085 187.658 466.085 188.625C466.085 189.583 466.281 190.333 466.672 190.875C467.072 191.408 467.601 191.675 468.26 191.675ZM475.964 199.325V191.7H477.314C477.606 191.533 477.81 191.3 477.926 191C478.051 190.7 478.139 190.333 478.189 189.9L479.064 182.225H489.889V191.7H491.339V197.675L487.614 199.325V195H479.689V197.675L475.964 199.325ZM481.339 191.7H486.164V185.525H482.314L481.764 190.225C481.731 190.508 481.676 190.771 481.601 191.012C481.526 191.254 481.439 191.483 481.339 191.7ZM499.464 195.3C498.198 195.3 497.106 195.033 496.189 194.5C495.281 193.967 494.581 193.2 494.089 192.2C493.606 191.2 493.364 190 493.364 188.6C493.364 187.242 493.61 186.062 494.102 185.062C494.602 184.062 495.306 183.292 496.214 182.75C497.131 182.2 498.214 181.925 499.464 181.925C500.548 181.925 501.523 182.146 502.389 182.587C503.264 183.021 503.956 183.687 504.464 184.587C504.981 185.479 505.239 186.608 505.239 187.975C505.239 188.208 505.235 188.5 505.227 188.85C505.218 189.192 505.189 189.533 505.139 189.875H497.014C497.014 190.333 497.114 190.733 497.314 191.075C497.514 191.408 497.798 191.667 498.164 191.85C498.531 192.033 498.964 192.125 499.464 192.125C500.114 192.125 500.656 192.021 501.089 191.812C501.531 191.604 501.956 191.258 502.364 190.775L504.514 192.925C503.914 193.65 503.202 194.229 502.377 194.662C501.552 195.087 500.581 195.3 499.464 195.3ZM497.064 187.075H501.664C501.598 186.633 501.468 186.267 501.277 185.975C501.085 185.683 500.831 185.467 500.514 185.325C500.198 185.175 499.814 185.1 499.364 185.1C498.756 185.1 498.243 185.275 497.827 185.625C497.41 185.975 497.156 186.458 497.064 187.075ZM508.223 195V182.225H511.973V188.675L516.673 182.225H520.423V195H516.673V188.575L511.973 195H508.223ZM514.323 180.775C513.173 180.775 512.21 180.575 511.435 180.175C510.66 179.775 510.077 179.246 509.685 178.587C509.293 177.929 509.098 177.217 509.098 176.45H511.823C511.823 176.7 511.893 176.962 512.035 177.237C512.177 177.512 512.427 177.746 512.785 177.937C513.152 178.129 513.664 178.225 514.323 178.225C514.981 178.225 515.493 178.129 515.86 177.937C516.227 177.746 516.481 177.512 516.623 177.237C516.773 176.962 516.848 176.7 516.848 176.45H519.573C519.573 177.217 519.373 177.929 518.973 178.587C518.581 179.246 517.993 179.775 517.21 180.175C516.435 180.575 515.473 180.775 514.323 180.775ZM524.838 198.525L523.163 197.2C523.313 197.067 523.496 196.871 523.713 196.613C523.929 196.363 524.142 196.1 524.35 195.825C524.567 195.55 524.738 195.317 524.863 195.125C524.488 194.908 524.184 194.637 523.95 194.312C523.725 193.979 523.613 193.55 523.613 193.025C523.613 192.358 523.846 191.825 524.313 191.425C524.779 191.025 525.313 190.825 525.913 190.825C526.538 190.825 527.063 191.046 527.488 191.487C527.921 191.921 528.138 192.525 528.138 193.3C528.138 193.95 527.979 194.608 527.663 195.275C527.346 195.95 526.934 196.571 526.425 197.138C525.925 197.713 525.396 198.175 524.838 198.525ZM566.763 195.3C564.93 195.3 563.484 194.708 562.425 193.525C561.367 192.333 560.838 190.7 560.838 188.625C560.838 187.258 561.08 186.075 561.563 185.075C562.046 184.067 562.73 183.292 563.613 182.75C564.505 182.2 565.555 181.925 566.763 181.925C567.963 181.925 569 182.2 569.875 182.75C570.759 183.292 571.438 184.062 571.913 185.062C572.396 186.062 572.638 187.25 572.638 188.625C572.638 190.008 572.4 191.2 571.925 192.2C571.459 193.192 570.784 193.958 569.9 194.5C569.025 195.033 567.98 195.3 566.763 195.3ZM566.763 191.675C567.455 191.675 567.984 191.412 568.35 190.887C568.725 190.354 568.913 189.6 568.913 188.625C568.913 187.65 568.721 186.896 568.338 186.362C567.963 185.821 567.438 185.55 566.763 185.55C566.088 185.55 565.555 185.825 565.163 186.375C564.78 186.925 564.588 187.675 564.588 188.625C564.588 189.575 564.78 190.321 565.163 190.862C565.555 191.404 566.088 191.675 566.763 191.675ZM581.02 195.3C579.812 195.3 578.766 195.029 577.883 194.487C576.999 193.937 576.316 193.162 575.833 192.162C575.358 191.162 575.12 189.983 575.12 188.625V187.15C575.12 185.408 575.283 183.908 575.608 182.65C575.933 181.383 576.416 180.337 577.058 179.512C577.708 178.679 578.503 178.037 579.445 177.587C580.395 177.137 581.487 176.858 582.72 176.75L586.545 176.4L584.345 180.05L582.195 180.25C581.587 180.308 581.058 180.437 580.608 180.637C580.166 180.829 579.783 181.137 579.458 181.562C579.141 181.987 578.87 182.575 578.645 183.325C578.612 183.45 578.574 183.579 578.533 183.712C578.491 183.837 578.445 183.983 578.395 184.15C578.462 184.025 578.52 183.908 578.57 183.8C578.628 183.692 578.695 183.575 578.77 183.45C579.087 182.925 579.516 182.542 580.058 182.3C580.608 182.05 581.212 181.925 581.87 181.925C582.878 181.925 583.762 182.196 584.52 182.737C585.278 183.279 585.866 184.05 586.283 185.05C586.708 186.05 586.92 187.233 586.92 188.6C586.92 189.958 586.678 191.142 586.195 192.15C585.712 193.15 585.028 193.925 584.145 194.475C583.262 195.025 582.22 195.3 581.02 195.3ZM581.02 191.675C581.712 191.675 582.245 191.408 582.62 190.875C583.003 190.342 583.195 189.583 583.195 188.6C583.195 187.608 583.008 186.854 582.633 186.337C582.258 185.812 581.72 185.55 581.02 185.55C580.32 185.55 579.783 185.812 579.408 186.337C579.033 186.862 578.845 187.625 578.845 188.625C578.845 189.608 579.033 190.362 579.408 190.887C579.783 191.412 580.32 191.675 581.02 191.675ZM588.726 185V182.225H595.476V185H588.726ZM592.476 195V182.225H596.226V186.4H599.926C600.826 186.4 601.617 186.583 602.301 186.95C602.984 187.308 603.517 187.812 603.901 188.462C604.284 189.104 604.476 189.85 604.476 190.7C604.476 191.542 604.28 192.287 603.888 192.937C603.505 193.579 602.971 194.083 602.288 194.45C601.605 194.817 600.817 195 599.926 195H592.476ZM596.226 191.975H599.426C599.817 191.975 600.13 191.854 600.363 191.612C600.605 191.362 600.726 191.058 600.726 190.7C600.726 190.325 600.605 190.021 600.363 189.787C600.13 189.546 599.817 189.425 599.426 189.425H596.226V191.975ZM612.934 195.3C611.667 195.3 610.576 195.033 609.659 194.5C608.751 193.967 608.051 193.2 607.559 192.2C607.076 191.2 606.834 190 606.834 188.6C606.834 187.242 607.08 186.062 607.571 185.062C608.071 184.062 608.776 183.292 609.684 182.75C610.601 182.2 611.684 181.925 612.934 181.925C614.017 181.925 614.992 182.146 615.859 182.587C616.734 183.021 617.426 183.687 617.934 184.587C618.451 185.479 618.709 186.608 618.709 187.975C618.709 188.208 618.705 188.5 618.696 188.85C618.688 189.192 618.659 189.533 618.609 189.875H610.484C610.484 190.333 610.584 190.733 610.784 191.075C610.984 191.408 611.267 191.667 611.634 191.85C612.001 192.033 612.434 192.125 612.934 192.125C613.584 192.125 614.126 192.021 614.559 191.812C615.001 191.604 615.426 191.258 615.834 190.775L617.984 192.925C617.384 193.65 616.671 194.229 615.846 194.662C615.021 195.087 614.051 195.3 612.934 195.3ZM610.534 187.075H615.134C615.067 186.633 614.938 186.267 614.746 185.975C614.555 185.683 614.301 185.467 613.984 185.325C613.667 185.175 613.284 185.1 612.834 185.1C612.226 185.1 611.713 185.275 611.296 185.625C610.88 185.975 610.626 186.458 610.534 187.075ZM620.366 199.325V191.7H621.716C622.008 191.533 622.212 191.3 622.329 191C622.454 190.7 622.541 190.333 622.591 189.9L623.466 182.225H634.291V191.7H635.741V197.675L632.016 199.325V195H624.091V197.675L620.366 199.325ZM625.741 191.7H630.566V185.525H626.716L626.166 190.225C626.133 190.508 626.079 190.771 626.004 191.012C625.929 191.254 625.841 191.483 625.741 191.7ZM638.44 195V182.225H642.19V188.675L646.89 182.225H650.64V195H646.89V188.575L642.19 195H638.44ZM654.31 195V182.225H658.06V186.775H663.535V182.225H667.285V195H663.535V190.075H658.06V195H654.31ZM670.96 195V182.225H674.71V188.675L679.41 182.225H683.16V195H679.41V188.575L674.71 195H670.96ZM686.829 195V182.225H694.454C695.504 182.225 696.333 182.396 696.942 182.737C697.558 183.071 697.996 183.504 698.254 184.037C698.521 184.562 698.654 185.117 698.654 185.7C698.654 186.35 698.529 186.887 698.279 187.312C698.037 187.737 697.696 188.083 697.254 188.35C697.921 188.6 698.392 189.008 698.667 189.575C698.942 190.142 699.079 190.675 699.079 191.175C699.079 191.792 698.933 192.396 698.642 192.987C698.358 193.571 697.896 194.054 697.254 194.437C696.612 194.812 695.754 195 694.679 195H686.829ZM690.579 192.25H693.804C694.146 192.25 694.425 192.2 694.642 192.1C694.858 192 695.017 191.862 695.117 191.687C695.225 191.512 695.279 191.308 695.279 191.075C695.279 190.858 695.225 190.662 695.117 190.487C695.017 190.312 694.858 190.175 694.642 190.075C694.425 189.975 694.146 189.925 693.804 189.925H690.579V192.25ZM690.579 187.175H693.604C694.004 187.175 694.312 187.075 694.529 186.875C694.746 186.667 694.854 186.4 694.854 186.075C694.854 185.858 694.804 185.667 694.704 185.5C694.612 185.333 694.471 185.204 694.279 185.112C694.096 185.021 693.871 184.975 693.604 184.975H690.579V187.175ZM702.259 195V182.225H706.009V191.7H709.359V182.225H713.109V191.7H716.459V182.225H720.209V195H702.259ZM723.89 195V182.225H727.64V188.675L732.34 182.225H736.09V195H732.34V188.575L727.64 195H723.89ZM738.533 195L743.433 188.4L738.833 182.225H743.208L744.808 184.375C744.95 184.558 745.1 184.762 745.258 184.987C745.425 185.212 745.542 185.408 745.608 185.575C745.7 185.408 745.817 185.212 745.958 184.987C746.108 184.754 746.25 184.55 746.383 184.375L748.033 182.225H752.408L747.808 188.4L752.708 195H748.333L746.383 192.45C746.25 192.275 746.108 192.071 745.958 191.837C745.817 191.604 745.7 191.408 745.608 191.25C745.542 191.408 745.421 191.604 745.246 191.837C745.079 192.071 744.933 192.271 744.808 192.437L742.908 195H738.533ZM760.247 195.3C759.013 195.3 757.947 195.029 757.047 194.487C756.147 193.946 755.451 193.175 754.959 192.175C754.468 191.175 754.222 189.992 754.222 188.625C754.222 187.267 754.468 186.087 754.959 185.087C755.459 184.079 756.159 183.3 757.059 182.75C757.968 182.2 759.03 181.925 760.247 181.925C761.713 181.925 762.922 182.267 763.872 182.95C764.83 183.633 765.522 184.65 765.947 186L762.372 187.175C762.172 186.65 761.893 186.246 761.534 185.962C761.176 185.671 760.763 185.525 760.297 185.525C759.638 185.525 759.093 185.817 758.659 186.4C758.234 186.983 758.022 187.725 758.022 188.625C758.022 189.525 758.23 190.262 758.647 190.837C759.063 191.412 759.597 191.7 760.247 191.7C760.747 191.7 761.176 191.55 761.534 191.25C761.893 190.942 762.172 190.483 762.372 189.875L765.947 190.9C765.522 192.375 764.834 193.479 763.884 194.212C762.934 194.937 761.722 195.3 760.247 195.3ZM776.382 195V190.825H772.957C772.057 190.825 771.265 190.646 770.582 190.287C769.899 189.921 769.365 189.417 768.982 188.775C768.599 188.125 768.407 187.375 768.407 186.525C768.407 185.683 768.599 184.942 768.982 184.3C769.374 183.65 769.911 183.142 770.594 182.775C771.278 182.408 772.065 182.225 772.957 182.225H780.132V195H776.382ZM767.507 195L771.832 189.175H776.232L771.782 195H767.507ZM773.457 187.8H776.382V185.25H773.457C773.074 185.25 772.761 185.371 772.519 185.612C772.278 185.854 772.157 186.158 772.157 186.525C772.157 186.9 772.278 187.208 772.519 187.45C772.761 187.683 773.074 187.8 773.457 187.8ZM194.875 232.075V214.225H198.625V215.075C199.183 214.308 200.017 213.925 201.125 213.925C202.225 213.925 203.171 214.196 203.963 214.737C204.754 215.271 205.363 216.037 205.788 217.037C206.213 218.037 206.425 219.233 206.425 220.625C206.425 221.95 206.2 223.112 205.75 224.112C205.3 225.112 204.671 225.896 203.863 226.462C203.063 227.021 202.133 227.3 201.075 227.3C200.542 227.3 200.067 227.204 199.65 227.013C199.242 226.829 198.9 226.558 198.625 226.2V230.4L194.875 232.075ZM200.475 223.675C201.175 223.675 201.717 223.408 202.1 222.875C202.483 222.333 202.675 221.583 202.675 220.625C202.675 219.625 202.488 218.862 202.113 218.337C201.738 217.812 201.192 217.55 200.475 217.55C200.067 217.55 199.717 217.604 199.425 217.712C199.142 217.821 198.875 218 198.625 218.25V222.925C198.7 223.133 198.913 223.312 199.263 223.462C199.621 223.604 200.025 223.675 200.475 223.675ZM213.324 227.3C211.916 227.3 210.799 226.929 209.974 226.187C209.157 225.437 208.749 224.433 208.749 223.175C208.749 222.35 208.966 221.625 209.399 221C209.841 220.375 210.449 219.892 211.224 219.55C212.007 219.2 212.916 219.025 213.949 219.025C214.466 219.025 214.974 219.067 215.474 219.15C215.982 219.225 216.399 219.333 216.724 219.475V218.75C216.724 218.208 216.537 217.792 216.162 217.5C215.795 217.2 215.274 217.05 214.599 217.05C213.966 217.05 213.316 217.162 212.649 217.387C211.991 217.612 211.291 217.958 210.549 218.425L209.399 215.55C210.191 215.025 211.062 214.625 212.012 214.35C212.97 214.067 213.949 213.925 214.949 213.925C216.791 213.925 218.166 214.346 219.074 215.187C219.991 216.021 220.449 217.275 220.449 218.95V227H216.724V226.075C216.341 226.475 215.857 226.779 215.274 226.987C214.699 227.196 214.049 227.3 213.324 227.3ZM214.299 224.175C214.766 224.175 215.203 224.104 215.612 223.962C216.028 223.812 216.399 223.6 216.724 223.325V222.275C216.416 222.158 216.078 222.071 215.712 222.012C215.345 221.954 214.966 221.925 214.574 221.925C213.899 221.925 213.37 222.033 212.987 222.25C212.612 222.458 212.424 222.758 212.424 223.15C212.424 223.475 212.587 223.729 212.912 223.912C213.237 224.087 213.699 224.175 214.299 224.175ZM222.65 231.325V223.7H224C224.292 223.533 224.496 223.3 224.613 223C224.738 222.7 224.825 222.333 224.875 221.9L225.75 214.225H236.575V223.7H238.025V229.675L234.3 231.325V227H226.375V229.675L222.65 231.325ZM228.025 223.7H232.85V217.525H229L228.45 222.225C228.417 222.508 228.363 222.771 228.288 223.012C228.213 223.254 228.125 223.483 228.025 223.7ZM240.725 227V214.225H244.475V220.675L249.175 214.225H252.925V227H249.175V220.575L244.475 227H240.725ZM280.241 227V214.225H292.466V227H288.716V217.525H283.991V227H280.241ZM301.484 227.3C299.651 227.3 298.205 226.708 297.146 225.525C296.088 224.333 295.559 222.7 295.559 220.625C295.559 219.258 295.801 218.075 296.284 217.075C296.767 216.067 297.451 215.292 298.334 214.75C299.226 214.2 300.276 213.925 301.484 213.925C302.684 213.925 303.721 214.2 304.596 214.75C305.48 215.292 306.159 216.062 306.634 217.062C307.117 218.062 307.359 219.25 307.359 220.625C307.359 222.008 307.121 223.2 306.646 224.2C306.18 225.192 305.505 225.958 304.621 226.5C303.746 227.033 302.701 227.3 301.484 227.3ZM301.484 223.675C302.176 223.675 302.705 223.412 303.071 222.887C303.446 222.354 303.634 221.6 303.634 220.625C303.634 219.65 303.442 218.896 303.059 218.362C302.684 217.821 302.159 217.55 301.484 217.55C300.809 217.55 300.276 217.825 299.884 218.375C299.501 218.925 299.309 219.675 299.309 220.625C299.309 221.575 299.501 222.321 299.884 222.862C300.276 223.404 300.809 223.675 301.484 223.675ZM317.464 227.225L314.639 221.775C314.58 221.65 314.501 221.483 314.401 221.275C314.31 221.067 314.23 220.883 314.164 220.725C314.18 220.9 314.189 221.071 314.189 221.237C314.189 221.396 314.189 221.525 314.189 221.625V227H310.564V214.225H314.064L317.039 220C317.114 220.15 317.189 220.304 317.264 220.462C317.347 220.621 317.414 220.758 317.464 220.875C317.514 220.758 317.576 220.621 317.651 220.462C317.735 220.304 317.814 220.15 317.889 220L320.864 214.225H324.364V227H320.739V221.875C320.739 221.775 320.739 221.604 320.739 221.362C320.747 221.112 320.755 220.9 320.764 220.725C320.689 220.875 320.597 221.058 320.489 221.275C320.389 221.483 320.305 221.65 320.239 221.775L317.464 227.225ZM333.442 227.3C331.609 227.3 330.163 226.708 329.104 225.525C328.046 224.333 327.517 222.7 327.517 220.625C327.517 219.258 327.759 218.075 328.242 217.075C328.725 216.067 329.409 215.292 330.292 214.75C331.184 214.2 332.234 213.925 333.442 213.925C334.642 213.925 335.679 214.2 336.554 214.75C337.438 215.292 338.117 216.062 338.592 217.062C339.075 218.062 339.317 219.25 339.317 220.625C339.317 222.008 339.079 223.2 338.604 224.2C338.138 225.192 337.463 225.958 336.579 226.5C335.704 227.033 334.659 227.3 333.442 227.3ZM333.442 223.675C334.134 223.675 334.663 223.412 335.029 222.887C335.404 222.354 335.592 221.6 335.592 220.625C335.592 219.65 335.4 218.896 335.017 218.362C334.642 217.821 334.117 217.55 333.442 217.55C332.767 217.55 332.234 217.825 331.842 218.375C331.459 218.925 331.267 219.675 331.267 220.625C331.267 221.575 331.459 222.321 331.842 222.862C332.234 223.404 332.767 223.675 333.442 223.675ZM358.75 231.325V227H357.625V223.7H362.5V229.65L358.75 231.325ZM342.4 227V214.225H346.15V223.7H349.5V214.225H353.25V223.7H356.6V214.225H360.35V227H342.4ZM365.202 227V214.225H368.952V220.675L373.652 214.225H377.402V227H373.652V220.575L368.952 227H365.202ZM409.994 227.3C408.786 227.3 407.74 227.029 406.857 226.487C405.973 225.937 405.29 225.162 404.807 224.162C404.332 223.162 404.094 221.983 404.094 220.625V219.15C404.094 217.408 404.257 215.908 404.582 214.65C404.907 213.383 405.39 212.337 406.032 211.512C406.682 210.679 407.478 210.037 408.419 209.587C409.369 209.137 410.461 208.858 411.694 208.75L415.519 208.4L413.319 212.05L411.169 212.25C410.561 212.308 410.032 212.437 409.582 212.637C409.14 212.829 408.757 213.137 408.432 213.562C408.115 213.987 407.844 214.575 407.619 215.325C407.586 215.45 407.548 215.579 407.507 215.712C407.465 215.837 407.419 215.983 407.369 216.15C407.436 216.025 407.494 215.908 407.544 215.8C407.603 215.692 407.669 215.575 407.744 215.45C408.061 214.925 408.49 214.542 409.032 214.3C409.582 214.05 410.186 213.925 410.844 213.925C411.853 213.925 412.736 214.196 413.494 214.737C414.253 215.279 414.84 216.05 415.257 217.05C415.682 218.05 415.894 219.233 415.894 220.6C415.894 221.958 415.653 223.142 415.169 224.15C414.686 225.15 414.003 225.925 413.119 226.475C412.236 227.025 411.194 227.3 409.994 227.3ZM409.994 223.675C410.686 223.675 411.219 223.408 411.594 222.875C411.978 222.342 412.169 221.583 412.169 220.6C412.169 219.608 411.982 218.854 411.607 218.337C411.232 217.812 410.694 217.55 409.994 217.55C409.294 217.55 408.757 217.812 408.382 218.337C408.007 218.862 407.819 219.625 407.819 220.625C407.819 221.608 408.007 222.362 408.382 222.887C408.757 223.412 409.294 223.675 409.994 223.675ZM424.452 227.3C423.185 227.3 422.094 227.033 421.177 226.5C420.269 225.967 419.569 225.2 419.077 224.2C418.594 223.2 418.352 222 418.352 220.6C418.352 219.242 418.598 218.062 419.09 217.062C419.59 216.062 420.294 215.292 421.202 214.75C422.119 214.2 423.202 213.925 424.452 213.925C425.535 213.925 426.51 214.146 427.377 214.587C428.252 215.021 428.944 215.687 429.452 216.587C429.969 217.479 430.227 218.608 430.227 219.975C430.227 220.208 430.223 220.5 430.215 220.85C430.206 221.192 430.177 221.533 430.127 221.875H422.002C422.002 222.333 422.102 222.733 422.302 223.075C422.502 223.408 422.785 223.667 423.152 223.85C423.519 224.033 423.952 224.125 424.452 224.125C425.102 224.125 425.644 224.021 426.077 223.812C426.519 223.604 426.944 223.258 427.352 222.775L429.502 224.925C428.902 225.65 428.19 226.229 427.365 226.662C426.54 227.087 425.569 227.3 424.452 227.3ZM422.052 219.075H426.652C426.585 218.633 426.456 218.267 426.265 217.975C426.073 217.683 425.819 217.467 425.502 217.325C425.185 217.175 424.802 217.1 424.352 217.1C423.744 217.1 423.231 217.275 422.815 217.625C422.398 217.975 422.144 218.458 422.052 219.075ZM437.792 227.3C436.417 227.3 435.225 227.017 434.217 226.45C433.209 225.883 432.492 225.1 432.067 224.1L435.217 222.975C435.484 223.383 435.825 223.7 436.242 223.925C436.659 224.142 437.134 224.25 437.667 224.25C438.159 224.25 438.529 224.154 438.779 223.962C439.038 223.771 439.167 223.508 439.167 223.175C439.167 222.833 439.025 222.567 438.742 222.375C438.459 222.175 438.067 222.075 437.567 222.075H435.292V219.075H437.367C437.767 219.075 438.088 218.975 438.329 218.775C438.571 218.567 438.692 218.3 438.692 217.975C438.692 217.658 438.575 217.412 438.342 217.237C438.117 217.062 437.792 216.975 437.367 216.975C436.917 216.975 436.513 217.075 436.154 217.275C435.796 217.475 435.509 217.75 435.292 218.1L432.492 216.9C432.934 215.933 433.6 215.196 434.492 214.687C435.392 214.179 436.459 213.925 437.692 213.925C439.117 213.925 440.259 214.246 441.117 214.887C441.984 215.521 442.417 216.358 442.417 217.4C442.417 218.133 442.196 218.762 441.754 219.287C441.321 219.812 440.709 220.183 439.917 220.4C440.867 220.575 441.6 220.942 442.117 221.5C442.634 222.058 442.892 222.75 442.892 223.575C442.892 224.683 442.425 225.583 441.492 226.275C440.567 226.958 439.334 227.3 437.792 227.3ZM444.921 231.325V223.7H446.271C446.563 223.533 446.767 223.3 446.884 223C447.009 222.7 447.096 222.333 447.146 221.9L448.021 214.225H458.846V223.7H460.296V229.675L456.571 231.325V227H448.646V229.675L444.921 231.325ZM450.296 223.7H455.121V217.525H451.271L450.721 222.225C450.688 222.508 450.634 222.771 450.559 223.012C450.484 223.254 450.396 223.483 450.296 223.7ZM468.247 227.3C466.413 227.3 464.968 226.708 463.909 225.525C462.851 224.333 462.322 222.7 462.322 220.625C462.322 219.258 462.563 218.075 463.047 217.075C463.53 216.067 464.213 215.292 465.097 214.75C465.988 214.2 467.038 213.925 468.247 213.925C469.447 213.925 470.484 214.2 471.359 214.75C472.243 215.292 472.922 216.062 473.397 217.062C473.88 218.062 474.122 219.25 474.122 220.625C474.122 222.008 473.884 223.2 473.409 224.2C472.943 225.192 472.268 225.958 471.384 226.5C470.509 227.033 469.463 227.3 468.247 227.3ZM468.247 223.675C468.938 223.675 469.468 223.412 469.834 222.887C470.209 222.354 470.397 221.6 470.397 220.625C470.397 219.65 470.205 218.896 469.822 218.362C469.447 217.821 468.922 217.55 468.247 217.55C467.572 217.55 467.038 217.825 466.647 218.375C466.263 218.925 466.072 219.675 466.072 220.625C466.072 221.575 466.263 222.321 466.647 222.862C467.038 223.404 467.572 223.675 468.247 223.675ZM484.227 227.225L481.402 221.775C481.343 221.65 481.264 221.483 481.164 221.275C481.072 221.067 480.993 220.883 480.927 220.725C480.943 220.9 480.952 221.071 480.952 221.237C480.952 221.396 480.952 221.525 480.952 221.625V227H477.327V214.225H480.827L483.802 220C483.877 220.15 483.952 220.304 484.027 220.462C484.11 220.621 484.177 220.758 484.227 220.875C484.277 220.758 484.339 220.621 484.414 220.462C484.497 220.304 484.577 220.15 484.652 220L487.627 214.225H491.127V227H487.502V221.875C487.502 221.775 487.502 221.604 487.502 221.362C487.51 221.112 487.518 220.9 487.527 220.725C487.452 220.875 487.36 221.058 487.252 221.275C487.152 221.483 487.068 221.65 487.002 221.775L484.227 227.225ZM494.807 227V214.225H498.557V218.775H504.032V214.225H507.782V227H504.032V222.075H498.557V227H494.807ZM511.458 227V214.225H515.208V218.4H518.908C519.808 218.4 520.599 218.583 521.283 218.95C521.966 219.308 522.499 219.812 522.883 220.462C523.266 221.104 523.458 221.85 523.458 222.7C523.458 223.542 523.262 224.287 522.87 224.937C522.487 225.579 521.953 226.083 521.27 226.45C520.587 226.817 519.799 227 518.908 227H511.458ZM515.208 223.975H518.408C518.799 223.975 519.112 223.854 519.345 223.612C519.587 223.362 519.708 223.058 519.708 222.7C519.708 222.325 519.587 222.021 519.345 221.787C519.112 221.546 518.799 221.425 518.408 221.425H515.208V223.975ZM526.183 227V214.225H529.933V227H526.183ZM540.892 227.225L538.067 221.775C538.008 221.65 537.929 221.483 537.829 221.275C537.738 221.067 537.658 220.883 537.592 220.725C537.608 220.9 537.617 221.071 537.617 221.237C537.617 221.396 537.617 221.525 537.617 221.625V227H533.992V214.225H537.492L540.467 220C540.542 220.15 540.617 220.304 540.692 220.462C540.775 220.621 540.842 220.758 540.892 220.875C540.942 220.758 541.004 220.621 541.079 220.462C541.163 220.304 541.242 220.15 541.317 220L544.292 214.225H547.792V227H544.167V221.875C544.167 221.775 544.167 221.604 544.167 221.362C544.175 221.112 544.183 220.9 544.192 220.725C544.117 220.875 544.025 221.058 543.917 221.275C543.817 221.483 543.733 221.65 543.667 221.775L540.892 227.225ZM583.095 225.05L574.245 214.225H578.245L583.095 220.25V225.05ZM584.895 225.05V220.25L589.745 214.225H593.745L584.895 225.05ZM573.87 227L578.995 217.65L581.42 220.65L577.97 227H573.87ZM582.12 227V214.225H585.87V227H582.12ZM590.02 227L586.57 220.65L588.995 217.65L594.12 227H590.02ZM596.58 227V214.225H600.33V220.675L605.03 214.225H608.78V227H605.03V220.575L600.33 227H596.58ZM612.449 227V214.225H620.074C621.124 214.225 621.953 214.396 622.561 214.737C623.178 215.071 623.616 215.504 623.874 216.037C624.141 216.562 624.274 217.117 624.274 217.7C624.274 218.35 624.149 218.887 623.899 219.312C623.657 219.737 623.316 220.083 622.874 220.35C623.541 220.6 624.011 221.008 624.286 221.575C624.561 222.142 624.699 222.675 624.699 223.175C624.699 223.792 624.553 224.396 624.261 224.987C623.978 225.571 623.516 226.054 622.874 226.437C622.232 226.812 621.374 227 620.299 227H612.449ZM616.199 224.25H619.424C619.766 224.25 620.045 224.2 620.261 224.1C620.478 224 620.636 223.862 620.736 223.687C620.845 223.512 620.899 223.308 620.899 223.075C620.899 222.858 620.845 222.662 620.736 222.487C620.636 222.312 620.478 222.175 620.261 222.075C620.045 221.975 619.766 221.925 619.424 221.925H616.199V224.25ZM616.199 219.175H619.224C619.624 219.175 619.932 219.075 620.149 218.875C620.366 218.667 620.474 218.4 620.474 218.075C620.474 217.858 620.424 217.667 620.324 217.5C620.232 217.333 620.091 217.204 619.899 217.112C619.716 217.021 619.491 216.975 619.224 216.975H616.199V219.175ZM633.154 227.3C631.321 227.3 629.875 226.708 628.817 225.525C627.758 224.333 627.229 222.7 627.229 220.625C627.229 219.258 627.471 218.075 627.954 217.075C628.438 216.067 629.121 215.292 630.004 214.75C630.896 214.2 631.946 213.925 633.154 213.925C634.354 213.925 635.392 214.2 636.267 214.75C637.15 215.292 637.829 216.062 638.304 217.062C638.788 218.062 639.029 219.25 639.029 220.625C639.029 222.008 638.792 223.2 638.317 224.2C637.85 225.192 637.175 225.958 636.292 226.5C635.417 227.033 634.371 227.3 633.154 227.3ZM633.154 223.675C633.846 223.675 634.375 223.412 634.742 222.887C635.117 222.354 635.304 221.6 635.304 220.625C635.304 219.65 635.113 218.896 634.729 218.362C634.354 217.821 633.829 217.55 633.154 217.55C632.479 217.55 631.946 217.825 631.554 218.375C631.171 218.925 630.979 219.675 630.979 220.625C630.979 221.575 631.171 222.321 631.554 222.862C631.946 223.404 632.479 223.675 633.154 223.675ZM644.559 227V217.525H640.884V214.225H651.984V217.525H648.309V227H644.559ZM654.368 227V214.225H658.118V218.775H663.593V214.225H667.343V227H663.593V222.075H658.118V227H654.368ZM671.018 227V214.225H674.768V218.4H678.468C679.368 218.4 680.16 218.583 680.843 218.95C681.527 219.308 682.06 219.812 682.443 220.462C682.827 221.104 683.018 221.85 683.018 222.7C683.018 223.542 682.822 224.287 682.431 224.937C682.047 225.579 681.514 226.083 680.831 226.45C680.147 226.817 679.36 227 678.468 227H671.018ZM674.768 223.975H677.968C678.36 223.975 678.672 223.854 678.906 223.612C679.147 223.362 679.268 223.058 679.268 222.7C679.268 222.325 679.147 222.021 678.906 221.787C678.672 221.546 678.36 221.425 677.968 221.425H674.768V223.975ZM685.743 227V214.225H689.493V227H685.743ZM700.452 227.225L697.627 221.775C697.569 221.65 697.49 221.483 697.39 221.275C697.298 221.067 697.219 220.883 697.152 220.725C697.169 220.9 697.177 221.071 697.177 221.237C697.177 221.396 697.177 221.525 697.177 221.625V227H693.552V214.225H697.052L700.027 220C700.102 220.15 700.177 220.304 700.252 220.462C700.336 220.621 700.402 220.758 700.452 220.875C700.502 220.758 700.565 220.621 700.64 220.462C700.723 220.304 700.802 220.15 700.877 220L703.852 214.225H707.352V227H703.727V221.875C703.727 221.775 703.727 221.604 703.727 221.362C703.736 221.112 703.744 220.9 703.752 220.725C703.677 220.875 703.586 221.058 703.477 221.275C703.377 221.483 703.294 221.65 703.227 221.775L700.452 227.225ZM712.675 227.3C712.025 227.3 711.483 227.092 711.05 226.675C710.616 226.258 710.4 225.725 710.4 225.075C710.4 224.45 710.616 223.921 711.05 223.487C711.483 223.046 712.025 222.825 712.675 222.825C713.325 222.825 713.871 223.046 714.312 223.487C714.754 223.921 714.975 224.45 714.975 225.075C714.975 225.725 714.754 226.258 714.312 226.675C713.871 227.092 713.325 227.3 712.675 227.3ZM749.621 227.3L745.321 218.425C745.313 218.4 745.3 218.367 745.284 218.325C745.267 218.275 745.246 218.208 745.221 218.125C745.221 218.2 745.221 218.267 745.221 218.325C745.221 218.383 745.221 218.425 745.221 218.45V227H741.271V209.5H745.296L749.296 218.2C749.388 218.383 749.467 218.558 749.534 218.725C749.6 218.883 749.663 219.058 749.721 219.25C749.788 219.058 749.85 218.875 749.909 218.7C749.975 218.525 750.046 218.358 750.121 218.2L754.271 209.5H757.946V227H753.996V218.425C753.996 218.375 753.996 218.321 753.996 218.262C753.996 218.204 753.996 218.158 753.996 218.125C753.971 218.175 753.946 218.225 753.921 218.275C753.905 218.317 753.888 218.35 753.871 218.375L749.621 227.3ZM761.634 227V214.225H765.384V218.4H769.084C769.984 218.4 770.775 218.583 771.459 218.95C772.142 219.308 772.675 219.812 773.059 220.462C773.442 221.104 773.634 221.85 773.634 222.7C773.634 223.542 773.438 224.287 773.046 224.937C772.663 225.579 772.13 226.083 771.446 226.45C770.763 226.817 769.975 227 769.084 227H761.634ZM765.384 223.975H768.584C768.975 223.975 769.288 223.854 769.521 223.612C769.763 223.362 769.884 223.058 769.884 222.7C769.884 222.325 769.763 222.021 769.521 221.787C769.288 221.546 768.975 221.425 768.584 221.425H765.384V223.975ZM776.359 227V214.225H780.109V227H776.359ZM200.275 259.3C199.042 259.3 197.975 259.029 197.075 258.487C196.175 257.946 195.479 257.175 194.988 256.175C194.496 255.175 194.25 253.992 194.25 252.625C194.25 251.267 194.496 250.087 194.988 249.087C195.488 248.079 196.188 247.3 197.088 246.75C197.996 246.2 199.058 245.925 200.275 245.925C201.742 245.925 202.95 246.267 203.9 246.95C204.858 247.633 205.55 248.65 205.975 250L202.4 251.175C202.2 250.65 201.921 250.246 201.563 249.962C201.204 249.671 200.792 249.525 200.325 249.525C199.667 249.525 199.121 249.817 198.688 250.4C198.263 250.983 198.05 251.725 198.05 252.625C198.05 253.525 198.258 254.262 198.675 254.837C199.092 255.412 199.625 255.7 200.275 255.7C200.775 255.7 201.204 255.55 201.563 255.25C201.921 254.942 202.2 254.483 202.4 253.875L205.975 254.9C205.55 256.375 204.863 257.479 203.913 258.212C202.963 258.937 201.75 259.3 200.275 259.3ZM211.555 259V249.525H207.88V246.225H218.98V249.525H215.305V259H211.555ZM221.364 264.075V246.225H225.114V247.075C225.673 246.308 226.506 245.925 227.614 245.925C228.714 245.925 229.66 246.196 230.452 246.737C231.243 247.271 231.852 248.037 232.277 249.037C232.702 250.037 232.914 251.233 232.914 252.625C232.914 253.95 232.689 255.112 232.239 256.112C231.789 257.112 231.16 257.896 230.352 258.462C229.552 259.021 228.623 259.3 227.564 259.3C227.031 259.3 226.556 259.204 226.139 259.013C225.731 258.829 225.389 258.558 225.114 258.2V262.4L221.364 264.075ZM226.964 255.675C227.664 255.675 228.206 255.408 228.589 254.875C228.973 254.333 229.164 253.583 229.164 252.625C229.164 251.625 228.977 250.862 228.602 250.337C228.227 249.812 227.681 249.55 226.964 249.55C226.556 249.55 226.206 249.604 225.914 249.712C225.631 249.821 225.364 250 225.114 250.25V254.925C225.189 255.133 225.402 255.312 225.752 255.462C226.11 255.604 226.514 255.675 226.964 255.675ZM241.488 259.3C240.221 259.3 239.129 259.033 238.213 258.5C237.304 257.967 236.604 257.2 236.113 256.2C235.629 255.2 235.388 254 235.388 252.6C235.388 251.242 235.634 250.062 236.125 249.062C236.625 248.062 237.329 247.292 238.238 246.75C239.154 246.2 240.238 245.925 241.488 245.925C242.571 245.925 243.546 246.146 244.413 246.587C245.288 247.021 245.979 247.687 246.488 248.587C247.004 249.479 247.263 250.608 247.263 251.975C247.263 252.208 247.259 252.5 247.25 252.85C247.242 253.192 247.213 253.533 247.163 253.875H239.038C239.038 254.333 239.138 254.733 239.338 255.075C239.538 255.408 239.821 255.667 240.188 255.85C240.554 256.033 240.988 256.125 241.488 256.125C242.138 256.125 242.679 256.021 243.113 255.812C243.554 255.604 243.979 255.258 244.388 254.775L246.538 256.925C245.938 257.65 245.225 258.229 244.4 258.662C243.575 259.087 242.604 259.3 241.488 259.3ZM239.088 251.075H243.688C243.621 250.633 243.492 250.267 243.3 249.975C243.109 249.683 242.854 249.467 242.538 249.325C242.221 249.175 241.838 249.1 241.388 249.1C240.779 249.1 240.267 249.275 239.85 249.625C239.434 249.975 239.179 250.458 239.088 251.075ZM257.146 259.225L254.321 253.775C254.263 253.65 254.184 253.483 254.084 253.275C253.992 253.067 253.913 252.883 253.846 252.725C253.863 252.9 253.871 253.071 253.871 253.237C253.871 253.396 253.871 253.525 253.871 253.625V259H250.246V246.225H253.746L256.721 252C256.796 252.15 256.871 252.304 256.946 252.462C257.029 252.621 257.096 252.758 257.146 252.875C257.196 252.758 257.259 252.621 257.334 252.462C257.417 252.304 257.496 252.15 257.571 252L260.546 246.225H264.046V259H260.421V253.875C260.421 253.775 260.421 253.604 260.421 253.362C260.429 253.112 260.438 252.9 260.446 252.725C260.371 252.875 260.279 253.058 260.171 253.275C260.071 253.483 259.988 253.65 259.921 253.775L257.146 259.225ZM267.727 259V246.225H271.477V252.675L276.177 246.225H279.927V259H276.177V252.575L271.477 259H267.727ZM290.496 259.225L287.671 253.775C287.612 253.65 287.533 253.483 287.433 253.275C287.342 253.067 287.262 252.883 287.196 252.725C287.212 252.9 287.221 253.071 287.221 253.237C287.221 253.396 287.221 253.525 287.221 253.625V259H283.596V246.225H287.096L290.071 252C290.146 252.15 290.221 252.304 290.296 252.462C290.379 252.621 290.446 252.758 290.496 252.875C290.546 252.758 290.608 252.621 290.683 252.462C290.767 252.304 290.846 252.15 290.921 252L293.896 246.225H297.396V259H293.771V253.875C293.771 253.775 293.771 253.604 293.771 253.362C293.779 253.112 293.787 252.9 293.796 252.725C293.721 252.875 293.629 253.058 293.521 253.275C293.421 253.483 293.337 253.65 293.271 253.775L290.496 259.225ZM306.574 259.3C305.34 259.3 304.274 259.029 303.374 258.487C302.474 257.946 301.778 257.175 301.286 256.175C300.795 255.175 300.549 253.992 300.549 252.625C300.549 251.267 300.795 250.087 301.286 249.087C301.786 248.079 302.486 247.3 303.386 246.75C304.295 246.2 305.357 245.925 306.574 245.925C308.04 245.925 309.249 246.267 310.199 246.95C311.157 247.633 311.849 248.65 312.274 250L308.699 251.175C308.499 250.65 308.22 250.246 307.861 249.962C307.503 249.671 307.09 249.525 306.624 249.525C305.965 249.525 305.42 249.817 304.986 250.4C304.561 250.983 304.349 251.725 304.349 252.625C304.349 253.525 304.557 254.262 304.974 254.837C305.39 255.412 305.924 255.7 306.574 255.7C307.074 255.7 307.503 255.55 307.861 255.25C308.22 254.942 308.499 254.483 308.699 253.875L312.274 254.9C311.849 256.375 311.161 257.479 310.211 258.212C309.261 258.937 308.049 259.3 306.574 259.3ZM322.709 259V254.825H319.284C318.384 254.825 317.592 254.646 316.909 254.287C316.226 253.921 315.692 253.417 315.309 252.775C314.926 252.125 314.734 251.375 314.734 250.525C314.734 249.683 314.926 248.942 315.309 248.3C315.701 247.65 316.238 247.142 316.921 246.775C317.605 246.408 318.392 246.225 319.284 246.225H326.459V259H322.709ZM313.834 259L318.159 253.175H322.559L318.109 259H313.834ZM319.784 251.8H322.709V249.25H319.784C319.401 249.25 319.088 249.371 318.846 249.612C318.605 249.854 318.484 250.158 318.484 250.525C318.484 250.9 318.605 251.208 318.846 251.45C319.088 251.683 319.401 251.8 319.784 251.8ZM356.239 259V246.225H359.989V250.775H365.464V246.225H369.214V259H365.464V254.075H359.989V259H356.239ZM378.463 259.3C377.196 259.3 376.104 259.033 375.188 258.5C374.279 257.967 373.579 257.2 373.088 256.2C372.604 255.2 372.363 254 372.363 252.6C372.363 251.242 372.608 250.062 373.1 249.062C373.6 248.062 374.304 247.292 375.213 246.75C376.129 246.2 377.213 245.925 378.463 245.925C379.546 245.925 380.521 246.146 381.388 246.587C382.263 247.021 382.954 247.687 383.463 248.587C383.979 249.479 384.238 250.608 384.238 251.975C384.238 252.208 384.233 252.5 384.225 252.85C384.217 253.192 384.188 253.533 384.138 253.875H376.013C376.013 254.333 376.113 254.733 376.313 255.075C376.513 255.408 376.796 255.667 377.163 255.85C377.529 256.033 377.963 256.125 378.463 256.125C379.113 256.125 379.654 256.021 380.088 255.812C380.529 255.604 380.954 255.258 381.363 254.775L383.513 256.925C382.913 257.65 382.2 258.229 381.375 258.662C380.55 259.087 379.579 259.3 378.463 259.3ZM376.063 251.075H380.663C380.596 250.633 380.467 250.267 380.275 249.975C380.083 249.683 379.829 249.467 379.513 249.325C379.196 249.175 378.813 249.1 378.363 249.1C377.754 249.1 377.242 249.275 376.825 249.625C376.408 249.975 376.154 250.458 376.063 251.075ZM415.583 259V249.525H411.908V246.225H423.008V249.525H419.333V259H415.583ZM430.79 259.3C428.956 259.3 427.51 258.708 426.452 257.525C425.394 256.333 424.865 254.7 424.865 252.625C424.865 251.258 425.106 250.075 425.59 249.075C426.073 248.067 426.756 247.292 427.64 246.75C428.531 246.2 429.581 245.925 430.79 245.925C431.99 245.925 433.027 246.2 433.902 246.75C434.785 247.292 435.465 248.062 435.94 249.062C436.423 250.062 436.665 251.25 436.665 252.625C436.665 254.008 436.427 255.2 435.952 256.2C435.485 257.192 434.81 257.958 433.927 258.5C433.052 259.033 432.006 259.3 430.79 259.3ZM430.79 255.675C431.481 255.675 432.01 255.412 432.377 254.887C432.752 254.354 432.94 253.6 432.94 252.625C432.94 251.65 432.748 250.896 432.365 250.362C431.99 249.821 431.465 249.55 430.79 249.55C430.115 249.55 429.581 249.825 429.19 250.375C428.806 250.925 428.615 251.675 428.615 252.625C428.615 253.575 428.806 254.321 429.19 254.862C429.581 255.404 430.115 255.675 430.79 255.675ZM440.22 259.3L438.345 256.375C439.112 256.233 439.662 256 439.995 255.675C440.337 255.35 440.545 254.875 440.62 254.25L441.545 246.225H452.52V259H448.77V249.525H444.92L444.22 255.45C444.087 256.575 443.683 257.45 443.008 258.075C442.341 258.692 441.412 259.1 440.22 259.3ZM456.203 259V246.225H459.953V250.4H463.653C464.553 250.4 465.344 250.583 466.028 250.95C466.711 251.308 467.244 251.812 467.628 252.462C468.011 253.104 468.203 253.85 468.203 254.7C468.203 255.542 468.007 256.287 467.615 256.937C467.232 257.579 466.698 258.083 466.015 258.45C465.332 258.817 464.544 259 463.653 259H456.203ZM459.953 255.975H463.153C463.544 255.975 463.857 255.854 464.09 255.612C464.332 255.362 464.453 255.058 464.453 254.7C464.453 254.325 464.332 254.021 464.09 253.787C463.857 253.546 463.544 253.425 463.153 253.425H459.953V255.975ZM474.071 257.05V252.25L478.921 246.225H482.921L474.071 257.05ZM471.046 259V246.225H474.796V259H471.046ZM479.446 259L475.996 252.65L478.421 249.65L483.546 259H479.446ZM491.019 259.3C489.186 259.3 487.74 258.708 486.682 257.525C485.623 256.333 485.094 254.7 485.094 252.625C485.094 251.258 485.336 250.075 485.819 249.075C486.302 248.067 486.986 247.292 487.869 246.75C488.761 246.2 489.811 245.925 491.019 245.925C492.219 245.925 493.257 246.2 494.132 246.75C495.015 247.292 495.694 248.062 496.169 249.062C496.652 250.062 496.894 251.25 496.894 252.625C496.894 254.008 496.657 255.2 496.182 256.2C495.715 257.192 495.04 257.958 494.157 258.5C493.282 259.033 492.236 259.3 491.019 259.3ZM491.019 255.675C491.711 255.675 492.24 255.412 492.607 254.887C492.982 254.354 493.169 253.6 493.169 252.625C493.169 251.65 492.977 250.896 492.594 250.362C492.219 249.821 491.694 249.55 491.019 249.55C490.344 249.55 489.811 249.825 489.419 250.375C489.036 250.925 488.844 251.675 488.844 252.625C488.844 253.575 489.036 254.321 489.419 254.862C489.811 255.404 490.344 255.675 491.019 255.675ZM531.463 259.3C530.23 259.3 529.163 259.029 528.263 258.487C527.363 257.946 526.667 257.175 526.176 256.175C525.684 255.175 525.438 253.992 525.438 252.625C525.438 251.267 525.684 250.087 526.176 249.087C526.676 248.079 527.376 247.3 528.276 246.75C529.184 246.2 530.246 245.925 531.463 245.925C532.93 245.925 534.138 246.267 535.088 246.95C536.046 247.633 536.738 248.65 537.163 250L533.588 251.175C533.388 250.65 533.109 250.246 532.751 249.962C532.392 249.671 531.98 249.525 531.513 249.525C530.855 249.525 530.309 249.817 529.876 250.4C529.451 250.983 529.238 251.725 529.238 252.625C529.238 253.525 529.446 254.262 529.863 254.837C530.28 255.412 530.813 255.7 531.463 255.7C531.963 255.7 532.392 255.55 532.751 255.25C533.109 254.942 533.388 254.483 533.588 253.875L537.163 254.9C536.738 256.375 536.051 257.479 535.101 258.212C534.151 258.937 532.938 259.3 531.463 259.3ZM540.174 259V246.225H552.399V259H548.649V249.525H543.924V259H540.174ZM559.893 259.3C558.485 259.3 557.368 258.929 556.543 258.187C555.726 257.437 555.318 256.433 555.318 255.175C555.318 254.35 555.535 253.625 555.968 253C556.41 252.375 557.018 251.892 557.793 251.55C558.576 251.2 559.485 251.025 560.518 251.025C561.035 251.025 561.543 251.067 562.043 251.15C562.551 251.225 562.968 251.333 563.293 251.475V250.75C563.293 250.208 563.105 249.792 562.73 249.5C562.364 249.2 561.843 249.05 561.168 249.05C560.535 249.05 559.885 249.162 559.218 249.387C558.56 249.612 557.86 249.958 557.118 250.425L555.968 247.55C556.76 247.025 557.63 246.625 558.58 246.35C559.539 246.067 560.518 245.925 561.518 245.925C563.36 245.925 564.735 246.346 565.643 247.187C566.56 248.021 567.018 249.275 567.018 250.95V259H563.293V258.075C562.91 258.475 562.426 258.779 561.843 258.987C561.268 259.196 560.618 259.3 559.893 259.3ZM560.868 256.175C561.335 256.175 561.772 256.104 562.18 255.962C562.597 255.812 562.968 255.6 563.293 255.325V254.275C562.985 254.158 562.647 254.071 562.28 254.012C561.914 253.954 561.535 253.925 561.143 253.925C560.468 253.925 559.939 254.033 559.555 254.25C559.18 254.458 558.993 254.758 558.993 255.15C558.993 255.475 559.155 255.729 559.48 255.912C559.805 256.087 560.268 256.175 560.868 256.175ZM575.872 259.3C574.639 259.3 573.572 259.029 572.672 258.487C571.772 257.946 571.076 257.175 570.585 256.175C570.093 255.175 569.847 253.992 569.847 252.625C569.847 251.267 570.093 250.087 570.585 249.087C571.085 248.079 571.785 247.3 572.685 246.75C573.593 246.2 574.656 245.925 575.872 245.925C577.339 245.925 578.547 246.267 579.497 246.95C580.456 247.633 581.147 248.65 581.572 250L577.997 251.175C577.797 250.65 577.518 250.246 577.16 249.962C576.801 249.671 576.389 249.525 575.922 249.525C575.264 249.525 574.718 249.817 574.285 250.4C573.86 250.983 573.647 251.725 573.647 252.625C573.647 253.525 573.856 254.262 574.272 254.837C574.689 255.412 575.222 255.7 575.872 255.7C576.372 255.7 576.801 255.55 577.16 255.25C577.518 254.942 577.797 254.483 577.997 253.875L581.572 254.9C581.147 256.375 580.46 257.479 579.51 258.212C578.56 258.937 577.347 259.3 575.872 259.3ZM588.555 259.3C587.147 259.3 586.03 258.929 585.205 258.187C584.388 257.437 583.98 256.433 583.98 255.175C583.98 254.35 584.197 253.625 584.63 253C585.072 252.375 585.68 251.892 586.455 251.55C587.238 251.2 588.147 251.025 589.18 251.025C589.697 251.025 590.205 251.067 590.705 251.15C591.213 251.225 591.63 251.333 591.955 251.475V250.75C591.955 250.208 591.768 249.792 591.393 249.5C591.026 249.2 590.505 249.05 589.83 249.05C589.197 249.05 588.547 249.162 587.88 249.387C587.222 249.612 586.522 249.958 585.78 250.425L584.63 247.55C585.422 247.025 586.293 246.625 587.243 246.35C588.201 246.067 589.18 245.925 590.18 245.925C592.022 245.925 593.397 246.346 594.305 247.187C595.222 248.021 595.68 249.275 595.68 250.95V259H591.955V258.075C591.572 258.475 591.088 258.779 590.505 258.987C589.93 259.196 589.28 259.3 588.555 259.3ZM589.53 256.175C589.997 256.175 590.434 256.104 590.843 255.962C591.259 255.812 591.63 255.6 591.955 255.325V254.275C591.647 254.158 591.309 254.071 590.943 254.012C590.576 253.954 590.197 253.925 589.805 253.925C589.13 253.925 588.601 254.033 588.218 254.25C587.843 254.458 587.655 254.758 587.655 255.15C587.655 255.475 587.818 255.729 588.143 255.912C588.468 256.087 588.93 256.175 589.53 256.175ZM601.556 259V249.525H597.881V246.225H608.981V249.525H605.306V259H601.556ZM611.366 259V246.225H615.116V250.4H618.816C619.716 250.4 620.507 250.583 621.191 250.95C621.874 251.308 622.407 251.812 622.791 252.462C623.174 253.104 623.366 253.85 623.366 254.7C623.366 255.542 623.17 256.287 622.778 256.937C622.395 257.579 621.862 258.083 621.178 258.45C620.495 258.817 619.707 259 618.816 259H611.366ZM615.116 255.975H618.316C618.707 255.975 619.02 255.854 619.253 255.612C619.495 255.362 619.616 255.058 619.616 254.7C619.616 254.325 619.495 254.021 619.253 253.787C619.02 253.546 618.707 253.425 618.316 253.425H615.116V255.975ZM652.393 259V246.225H656.143V252.675L660.843 246.225H664.593V259H660.843V252.575L656.143 259H652.393ZM694.748 259.3L692.873 256.375C693.64 256.233 694.19 256 694.523 255.675C694.865 255.35 695.073 254.875 695.148 254.25L696.073 246.225H707.048V259H703.298V249.525H699.448L698.748 255.45C698.615 256.575 698.211 257.45 697.536 258.075C696.869 258.692 695.94 259.1 694.748 259.3ZM716.352 259.3C715.085 259.3 713.994 259.033 713.077 258.5C712.169 257.967 711.469 257.2 710.977 256.2C710.494 255.2 710.252 254 710.252 252.6C710.252 251.242 710.498 250.062 710.989 249.062C711.489 248.062 712.194 247.292 713.102 246.75C714.019 246.2 715.102 245.925 716.352 245.925C717.435 245.925 718.41 246.146 719.277 246.587C720.152 247.021 720.844 247.687 721.352 248.587C721.869 249.479 722.127 250.608 722.127 251.975C722.127 252.208 722.123 252.5 722.114 252.85C722.106 253.192 722.077 253.533 722.027 253.875H713.902C713.902 254.333 714.002 254.733 714.202 255.075C714.402 255.408 714.685 255.667 715.052 255.85C715.419 256.033 715.852 256.125 716.352 256.125C717.002 256.125 717.544 256.021 717.977 255.812C718.419 255.604 718.844 255.258 719.252 254.775L721.402 256.925C720.802 257.65 720.089 258.229 719.264 258.662C718.439 259.087 717.469 259.3 716.352 259.3ZM713.952 251.075H718.552C718.485 250.633 718.356 250.267 718.164 249.975C717.973 249.683 717.719 249.467 717.402 249.325C717.085 249.175 716.702 249.1 716.252 249.1C715.644 249.1 715.131 249.275 714.714 249.625C714.298 249.975 714.044 250.458 713.952 251.075ZM733.388 259V254.025C733.005 254.483 732.513 254.846 731.913 255.112C731.313 255.371 730.555 255.5 729.638 255.5C729.113 255.5 728.576 255.429 728.026 255.287C727.484 255.137 726.984 254.887 726.526 254.537C726.067 254.187 725.697 253.708 725.413 253.1C725.13 252.492 724.988 251.725 724.988 250.8V246.225H728.738V249.175C728.738 250.1 728.888 250.783 729.188 251.225C729.497 251.658 730.088 251.875 730.963 251.875C731.505 251.875 731.955 251.783 732.313 251.6C732.672 251.417 732.938 251.129 733.113 250.737C733.297 250.346 733.388 249.842 733.388 249.225V246.225H737.138V259H733.388ZM740.809 259V246.225H744.559V252.675L749.259 246.225H753.009V259H749.259V252.575L744.559 259H740.809ZM759.075 259V249.525H755.4V246.225H766.5V249.525H762.825V259H759.075ZM768.885 259V246.225H772.635V250.4H776.335C777.235 250.4 778.026 250.583 778.71 250.95C779.393 251.308 779.926 251.812 780.31 252.462C780.693 253.104 780.885 253.85 780.885 254.7C780.885 255.542 780.689 256.287 780.297 256.937C779.914 257.579 779.381 258.083 778.697 258.45C778.014 258.817 777.226 259 776.335 259H768.885ZM772.635 255.975H775.835C776.226 255.975 776.539 255.854 776.772 255.612C777.014 255.362 777.135 255.058 777.135 254.7C777.135 254.325 777.014 254.021 776.772 253.787C776.539 253.546 776.226 253.425 775.835 253.425H772.635V255.975ZM202.85 289.05L194 278.225H198L202.85 284.25V289.05ZM204.65 289.05V284.25L209.5 278.225H213.5L204.65 289.05ZM193.625 291L198.75 281.65L201.175 284.65L197.725 291H193.625ZM201.875 291V278.225H205.625V291H201.875ZM209.775 291L206.325 284.65L208.75 281.65L213.875 291H209.775ZM216.335 291V278.225H220.085V284.675L224.785 278.225H228.535V291H224.785V284.575L220.085 291H216.335ZM232.204 291V278.225H239.829C240.879 278.225 241.708 278.396 242.317 278.737C242.933 279.071 243.371 279.504 243.629 280.037C243.896 280.562 244.029 281.117 244.029 281.7C244.029 282.35 243.904 282.887 243.654 283.312C243.412 283.737 243.071 284.083 242.629 284.35C243.296 284.6 243.767 285.008 244.042 285.575C244.317 286.142 244.454 286.675 244.454 287.175C244.454 287.792 244.308 288.396 244.017 288.987C243.733 289.571 243.271 290.054 242.629 290.437C241.987 290.812 241.129 291 240.054 291H232.204ZM235.954 288.25H239.179C239.521 288.25 239.8 288.2 240.017 288.1C240.233 288 240.392 287.862 240.492 287.687C240.6 287.512 240.654 287.308 240.654 287.075C240.654 286.858 240.6 286.662 240.492 286.487C240.392 286.312 240.233 286.175 240.017 286.075C239.8 285.975 239.521 285.925 239.179 285.925H235.954V288.25ZM235.954 283.175H238.979C239.379 283.175 239.687 283.075 239.904 282.875C240.121 282.667 240.229 282.4 240.229 282.075C240.229 281.858 240.179 281.667 240.079 281.5C239.987 281.333 239.846 281.204 239.654 281.112C239.471 281.021 239.246 280.975 238.979 280.975H235.954V283.175ZM252.909 291.3C251.076 291.3 249.63 290.708 248.572 289.525C247.514 288.333 246.984 286.7 246.984 284.625C246.984 283.258 247.226 282.075 247.709 281.075C248.193 280.067 248.876 279.292 249.759 278.75C250.651 278.2 251.701 277.925 252.909 277.925C254.109 277.925 255.147 278.2 256.022 278.75C256.905 279.292 257.584 280.062 258.059 281.062C258.543 282.062 258.784 283.25 258.784 284.625C258.784 286.008 258.547 287.2 258.072 288.2C257.605 289.192 256.93 289.958 256.047 290.5C255.172 291.033 254.126 291.3 252.909 291.3ZM252.909 287.675C253.601 287.675 254.13 287.412 254.497 286.887C254.872 286.354 255.059 285.6 255.059 284.625C255.059 283.65 254.868 282.896 254.484 282.362C254.109 281.821 253.584 281.55 252.909 281.55C252.234 281.55 251.701 281.825 251.309 282.375C250.926 282.925 250.734 283.675 250.734 284.625C250.734 285.575 250.926 286.321 251.309 286.862C251.701 287.404 252.234 287.675 252.909 287.675ZM264.314 291V281.525H260.639V278.225H271.739V281.525H268.064V291H264.314ZM274.123 291V278.225H277.873V282.775H283.348V278.225H287.098V291H283.348V286.075H277.873V291H274.123ZM290.773 291V278.225H294.523V282.4H298.223C299.123 282.4 299.915 282.583 300.598 282.95C301.282 283.308 301.815 283.812 302.198 284.462C302.582 285.104 302.773 285.85 302.773 286.7C302.773 287.542 302.578 288.287 302.186 288.937C301.803 289.579 301.269 290.083 300.586 290.45C299.903 290.817 299.115 291 298.223 291H290.773ZM294.523 287.975H297.723C298.115 287.975 298.428 287.854 298.661 287.612C298.903 287.362 299.023 287.058 299.023 286.7C299.023 286.325 298.903 286.021 298.661 285.787C298.428 285.546 298.115 285.425 297.723 285.425H294.523V287.975ZM305.498 291V278.225H309.248V291H305.498ZM311.716 291L316.616 284.4L312.016 278.225H316.391L317.991 280.375C318.132 280.558 318.282 280.762 318.441 280.987C318.607 281.212 318.724 281.408 318.791 281.575C318.882 281.408 318.999 281.212 319.141 280.987C319.291 280.754 319.432 280.55 319.566 280.375L321.216 278.225H325.591L320.991 284.4L325.891 291H321.516L319.566 288.45C319.432 288.275 319.291 288.071 319.141 287.837C318.999 287.604 318.882 287.408 318.791 287.25C318.724 287.408 318.603 287.604 318.428 287.837C318.262 288.071 318.116 288.271 317.991 288.437L316.091 291H311.716ZM329.117 294.525L327.442 293.2C327.592 293.067 327.775 292.871 327.992 292.613C328.209 292.363 328.421 292.1 328.629 291.825C328.846 291.55 329.017 291.317 329.142 291.125C328.767 290.908 328.463 290.637 328.229 290.312C328.004 289.979 327.892 289.55 327.892 289.025C327.892 288.358 328.125 287.825 328.592 287.425C329.059 287.025 329.592 286.825 330.192 286.825C330.817 286.825 331.342 287.046 331.767 287.487C332.2 287.921 332.417 288.525 332.417 289.3C332.417 289.95 332.259 290.608 331.942 291.275C331.625 291.95 331.213 292.571 330.704 293.138C330.204 293.713 329.675 294.175 329.117 294.525ZM341.652 291V278.225H345.402V282.775H350.877V278.225H354.627V291H350.877V286.075H345.402V291H341.652ZM363.7 291.3C361.867 291.3 360.421 290.708 359.363 289.525C358.305 288.333 357.775 286.7 357.775 284.625C357.775 283.258 358.017 282.075 358.5 281.075C358.984 280.067 359.667 279.292 360.55 278.75C361.442 278.2 362.492 277.925 363.7 277.925C364.9 277.925 365.938 278.2 366.813 278.75C367.696 279.292 368.375 280.062 368.85 281.062C369.334 282.062 369.575 283.25 369.575 284.625C369.575 286.008 369.338 287.2 368.863 288.2C368.396 289.192 367.721 289.958 366.838 290.5C365.963 291.033 364.917 291.3 363.7 291.3ZM363.7 287.675C364.392 287.675 364.921 287.412 365.288 286.887C365.663 286.354 365.85 285.6 365.85 284.625C365.85 283.65 365.659 282.896 365.275 282.362C364.9 281.821 364.375 281.55 363.7 281.55C363.025 281.55 362.492 281.825 362.1 282.375C361.717 282.925 361.525 283.675 361.525 284.625C361.525 285.575 361.717 286.321 362.1 286.862C362.492 287.404 363.025 287.675 363.7 287.675ZM379.201 291V278.225H382.951V284.675L387.651 278.225H391.401V291H387.651V284.575L382.951 291H379.201ZM401.638 291V278.225H405.388V282.775H410.863V278.225H414.613V291H410.863V286.075H405.388V291H401.638ZM422.113 291.3C420.705 291.3 419.588 290.929 418.763 290.187C417.946 289.437 417.538 288.433 417.538 287.175C417.538 286.35 417.755 285.625 418.188 285C418.63 284.375 419.238 283.892 420.013 283.55C420.796 283.2 421.705 283.025 422.738 283.025C423.255 283.025 423.763 283.067 424.263 283.15C424.771 283.225 425.188 283.333 425.513 283.475V282.75C425.513 282.208 425.326 281.792 424.951 281.5C424.584 281.2 424.063 281.05 423.388 281.05C422.755 281.05 422.105 281.162 421.438 281.387C420.78 281.612 420.08 281.958 419.338 282.425L418.188 279.55C418.98 279.025 419.851 278.625 420.801 278.35C421.759 278.067 422.738 277.925 423.738 277.925C425.58 277.925 426.955 278.346 427.863 279.187C428.78 280.021 429.238 281.275 429.238 282.95V291H425.513V290.075C425.13 290.475 424.646 290.779 424.063 290.987C423.488 291.196 422.838 291.3 422.113 291.3ZM423.088 288.175C423.555 288.175 423.992 288.104 424.401 287.962C424.817 287.812 425.188 287.6 425.513 287.325V286.275C425.205 286.158 424.867 286.071 424.501 286.012C424.134 285.954 423.755 285.925 423.363 285.925C422.688 285.925 422.159 286.033 421.776 286.25C421.401 286.458 421.213 286.758 421.213 287.15C421.213 287.475 421.376 287.729 421.701 287.912C422.026 288.087 422.488 288.175 423.088 288.175ZM431.54 291L436.44 284.4L431.84 278.225H436.215L437.815 280.375C437.957 280.558 438.107 280.762 438.265 280.987C438.432 281.212 438.548 281.408 438.615 281.575C438.707 281.408 438.823 281.212 438.965 280.987C439.115 280.754 439.257 280.55 439.39 280.375L441.04 278.225H445.415L440.815 284.4L445.715 291H441.34L439.39 288.45C439.257 288.275 439.115 288.071 438.965 287.837C438.823 287.604 438.707 287.408 438.615 287.25C438.548 287.408 438.428 287.604 438.253 287.837C438.086 288.071 437.94 288.271 437.815 288.437L435.915 291H431.54ZM453.154 291.3C451.32 291.3 449.874 290.708 448.816 289.525C447.758 288.333 447.229 286.7 447.229 284.625C447.229 283.258 447.47 282.075 447.954 281.075C448.437 280.067 449.12 279.292 450.004 278.75C450.895 278.2 451.945 277.925 453.154 277.925C454.354 277.925 455.391 278.2 456.266 278.75C457.149 279.292 457.829 280.062 458.304 281.062C458.787 282.062 459.029 283.25 459.029 284.625C459.029 286.008 458.791 287.2 458.316 288.2C457.849 289.192 457.174 289.958 456.291 290.5C455.416 291.033 454.37 291.3 453.154 291.3ZM453.154 287.675C453.845 287.675 454.374 287.412 454.741 286.887C455.116 286.354 455.304 285.6 455.304 284.625C455.304 283.65 455.112 282.896 454.729 282.362C454.354 281.821 453.829 281.55 453.154 281.55C452.479 281.55 451.945 281.825 451.554 282.375C451.17 282.925 450.979 283.675 450.979 284.625C450.979 285.575 451.17 286.321 451.554 286.862C451.945 287.404 452.479 287.675 453.154 287.675ZM460.858 295.325V287.7H462.208C462.5 287.533 462.704 287.3 462.821 287C462.946 286.7 463.033 286.333 463.083 285.9L463.958 278.225H474.783V287.7H476.233V293.675L472.508 295.325V291H464.583V293.675L460.858 295.325ZM466.233 287.7H471.058V281.525H467.208L466.658 286.225C466.625 286.508 466.571 286.771 466.496 287.012C466.421 287.254 466.333 287.483 466.233 287.7ZM478.933 291V278.225H482.683V284.675L487.383 278.225H491.133V291H487.383V284.575L482.683 291H478.933ZM497.199 291V281.525H493.524V278.225H504.624V281.525H500.949V291H497.199ZM507.009 291V278.225H510.759V282.4H514.459C515.359 282.4 516.15 282.583 516.834 282.95C517.517 283.308 518.05 283.812 518.434 284.462C518.817 285.104 519.009 285.85 519.009 286.7C519.009 287.542 518.813 288.287 518.421 288.937C518.038 289.579 517.505 290.083 516.821 290.45C516.138 290.817 515.35 291 514.459 291H507.009ZM510.759 287.975H513.959C514.35 287.975 514.663 287.854 514.896 287.612C515.138 287.362 515.259 287.058 515.259 286.7C515.259 286.325 515.138 286.021 514.896 285.787C514.663 285.546 514.35 285.425 513.959 285.425H510.759V287.975ZM528.493 291V278.225H532.243V284.675L536.943 278.225H540.693V291H536.943V284.575L532.243 291H528.493ZM551.262 291.225L548.437 285.775C548.379 285.65 548.3 285.483 548.2 285.275C548.108 285.067 548.029 284.883 547.962 284.725C547.979 284.9 547.987 285.071 547.987 285.237C547.987 285.396 547.987 285.525 547.987 285.625V291H544.362V278.225H547.862L550.837 284C550.912 284.15 550.987 284.304 551.062 284.462C551.146 284.621 551.212 284.758 551.262 284.875C551.312 284.758 551.375 284.621 551.45 284.462C551.533 284.304 551.612 284.15 551.687 284L554.662 278.225H558.162V291H554.537V285.875C554.537 285.775 554.537 285.604 554.537 285.362C554.546 285.112 554.554 284.9 554.562 284.725C554.487 284.875 554.396 285.058 554.287 285.275C554.187 285.483 554.104 285.65 554.037 285.775L551.262 291.225ZM568.785 291.3L566.91 288.375C567.677 288.233 568.227 288 568.56 287.675C568.902 287.35 569.11 286.875 569.185 286.25L570.11 278.225H581.085V291H577.335V281.525H573.485L572.785 287.45C572.652 288.575 572.248 289.45 571.573 290.075C570.906 290.692 569.977 291.1 568.785 291.3ZM597.393 291.3C595.859 291.3 594.588 290.875 593.58 290.025C592.572 289.167 591.918 287.958 591.618 286.4H588.518V291H584.768V278.225H588.518V282.8H591.643C591.943 281.258 592.593 280.062 593.593 279.212C594.601 278.354 595.868 277.925 597.393 277.925C598.593 277.925 599.63 278.2 600.505 278.75C601.388 279.292 602.068 280.062 602.543 281.062C603.026 282.062 603.268 283.25 603.268 284.625C603.268 286.725 602.738 288.362 601.68 289.537C600.622 290.712 599.193 291.3 597.393 291.3ZM597.393 287.675C598.084 287.675 598.613 287.408 598.98 286.875C599.355 286.333 599.543 285.583 599.543 284.625C599.543 283.658 599.355 282.904 598.98 282.362C598.613 281.821 598.084 281.55 597.393 281.55C596.734 281.55 596.205 281.821 595.805 282.362C595.413 282.904 595.218 283.658 595.218 284.625C595.218 285.583 595.413 286.333 595.805 286.875C596.205 287.408 596.734 287.675 597.393 287.675ZM611.649 291.3C610.441 291.3 609.395 291.029 608.512 290.487C607.628 289.937 606.945 289.162 606.462 288.162C605.987 287.162 605.749 285.983 605.749 284.625V283.15C605.749 281.408 605.912 279.908 606.237 278.65C606.562 277.383 607.045 276.337 607.687 275.512C608.337 274.679 609.132 274.037 610.074 273.587C611.024 273.137 612.116 272.858 613.349 272.75L617.174 272.4L614.974 276.05L612.824 276.25C612.216 276.308 611.687 276.437 611.237 276.637C610.795 276.829 610.412 277.137 610.087 277.562C609.77 277.987 609.499 278.575 609.274 279.325C609.241 279.45 609.203 279.579 609.162 279.712C609.12 279.837 609.074 279.983 609.024 280.15C609.091 280.025 609.149 279.908 609.199 279.8C609.257 279.692 609.324 279.575 609.399 279.45C609.716 278.925 610.145 278.542 610.687 278.3C611.237 278.05 611.841 277.925 612.499 277.925C613.507 277.925 614.391 278.196 615.149 278.737C615.907 279.279 616.495 280.05 616.912 281.05C617.337 282.05 617.549 283.233 617.549 284.6C617.549 285.958 617.307 287.142 616.824 288.15C616.341 289.15 615.657 289.925 614.774 290.475C613.891 291.025 612.849 291.3 611.649 291.3ZM611.649 287.675C612.341 287.675 612.874 287.408 613.249 286.875C613.632 286.342 613.824 285.583 613.824 284.6C613.824 283.608 613.637 282.854 613.262 282.337C612.887 281.812 612.349 281.55 611.649 281.55C610.949 281.55 610.412 281.812 610.037 282.337C609.662 282.862 609.474 283.625 609.474 284.625C609.474 285.608 609.662 286.362 610.037 286.887C610.412 287.412 610.949 287.675 611.649 287.675ZM627.958 291V286.825H624.533C623.633 286.825 622.841 286.646 622.158 286.287C621.475 285.921 620.941 285.417 620.558 284.775C620.175 284.125 619.983 283.375 619.983 282.525C619.983 281.683 620.175 280.942 620.558 280.3C620.95 279.65 621.487 279.142 622.171 278.775C622.854 278.408 623.641 278.225 624.533 278.225H631.708V291H627.958ZM619.083 291L623.408 285.175H627.808L623.358 291H619.083ZM625.033 283.8H627.958V281.25H625.033C624.65 281.25 624.337 281.371 624.096 281.612C623.854 281.854 623.733 282.158 623.733 282.525C623.733 282.9 623.854 283.208 624.096 283.45C624.337 283.683 624.65 283.8 625.033 283.8ZM651.728 295.325V291H650.603V287.7H655.478V293.65L651.728 295.325ZM635.378 291V278.225H639.128V287.7H642.478V278.225H646.228V287.7H649.578V278.225H653.328V291H635.378ZM658.181 291V278.225H661.931V284.675L666.631 278.225H670.381V291H666.631V284.575L661.931 291H658.181ZM679.525 291.3C678.258 291.3 677.166 291.033 676.25 290.5C675.341 289.967 674.641 289.2 674.15 288.2C673.666 287.2 673.425 286 673.425 284.6C673.425 283.242 673.671 282.062 674.162 281.062C674.662 280.062 675.366 279.292 676.275 278.75C677.191 278.2 678.275 277.925 679.525 277.925C680.608 277.925 681.583 278.146 682.45 278.587C683.325 279.021 684.016 279.687 684.525 280.587C685.041 281.479 685.3 282.608 685.3 283.975C685.3 284.208 685.296 284.5 685.287 284.85C685.279 285.192 685.25 285.533 685.2 285.875H677.075C677.075 286.333 677.175 286.733 677.375 287.075C677.575 287.408 677.858 287.667 678.225 287.85C678.591 288.033 679.025 288.125 679.525 288.125C680.175 288.125 680.716 288.021 681.15 287.812C681.591 287.604 682.016 287.258 682.425 286.775L684.575 288.925C683.975 289.65 683.262 290.229 682.437 290.662C681.612 291.087 680.641 291.3 679.525 291.3ZM677.125 283.075H681.725C681.658 282.633 681.529 282.267 681.337 281.975C681.146 281.683 680.891 281.467 680.575 281.325C680.258 281.175 679.875 281.1 679.425 281.1C678.816 281.1 678.304 281.275 677.887 281.625C677.471 281.975 677.216 282.458 677.125 283.075ZM700.202 291.3C698.968 291.3 697.902 291.029 697.002 290.487C696.102 289.946 695.406 289.175 694.914 288.175C694.423 287.175 694.177 285.992 694.177 284.625C694.177 283.267 694.423 282.087 694.914 281.087C695.414 280.079 696.114 279.3 697.014 278.75C697.923 278.2 698.985 277.925 700.202 277.925C701.668 277.925 702.877 278.267 703.827 278.95C704.785 279.633 705.477 280.65 705.902 282L702.327 283.175C702.127 282.65 701.848 282.246 701.489 281.962C701.131 281.671 700.718 281.525 700.252 281.525C699.593 281.525 699.048 281.817 698.614 282.4C698.189 282.983 697.977 283.725 697.977 284.625C697.977 285.525 698.185 286.262 698.602 286.837C699.018 287.412 699.552 287.7 700.202 287.7C700.702 287.7 701.131 287.55 701.489 287.25C701.848 286.942 702.127 286.483 702.327 285.875L705.902 286.9C705.477 288.375 704.789 289.479 703.839 290.212C702.889 290.937 701.677 291.3 700.202 291.3ZM714.461 291.3C713.195 291.3 712.103 291.033 711.186 290.5C710.278 289.967 709.578 289.2 709.086 288.2C708.603 287.2 708.361 286 708.361 284.6C708.361 283.242 708.607 282.062 709.099 281.062C709.599 280.062 710.303 279.292 711.211 278.75C712.128 278.2 713.211 277.925 714.461 277.925C715.545 277.925 716.52 278.146 717.386 278.587C718.261 279.021 718.953 279.687 719.461 280.587C719.978 281.479 720.236 282.608 720.236 283.975C720.236 284.208 720.232 284.5 720.224 284.85C720.215 285.192 720.186 285.533 720.136 285.875H712.011C712.011 286.333 712.111 286.733 712.311 287.075C712.511 287.408 712.795 287.667 713.161 287.85C713.528 288.033 713.961 288.125 714.461 288.125C715.111 288.125 715.653 288.021 716.086 287.812C716.528 287.604 716.953 287.258 717.361 286.775L719.511 288.925C718.911 289.65 718.199 290.229 717.374 290.662C716.549 291.087 715.578 291.3 714.461 291.3ZM712.061 283.075H716.661C716.595 282.633 716.465 282.267 716.274 281.975C716.082 281.683 715.828 281.467 715.511 281.325C715.195 281.175 714.811 281.1 714.361 281.1C713.753 281.1 713.24 281.275 712.824 281.625C712.407 281.975 712.153 282.458 712.061 283.075ZM730.12 291.225L727.295 285.775C727.236 285.65 727.157 285.483 727.057 285.275C726.966 285.067 726.886 284.883 726.82 284.725C726.836 284.9 726.845 285.071 726.845 285.237C726.845 285.396 726.845 285.525 726.845 285.625V291H723.22V278.225H726.72L729.695 284C729.77 284.15 729.845 284.304 729.92 284.462C730.003 284.621 730.07 284.758 730.12 284.875C730.17 284.758 730.232 284.621 730.307 284.462C730.391 284.304 730.47 284.15 730.545 284L733.52 278.225H737.02V291H733.395V285.875C733.395 285.775 733.395 285.604 733.395 285.362C733.403 285.112 733.411 284.9 733.42 284.725C733.345 284.875 733.253 285.058 733.145 285.275C733.045 285.483 732.961 285.65 732.895 285.775L730.12 291.225ZM740.7 291V278.225H744.45V282.4H748.15C749.05 282.4 749.842 282.583 750.525 282.95C751.209 283.308 751.742 283.812 752.125 284.462C752.509 285.104 752.7 285.85 752.7 286.7C752.7 287.542 752.504 288.287 752.113 288.937C751.729 289.579 751.196 290.083 750.513 290.45C749.829 290.817 749.042 291 748.15 291H740.7ZM744.45 287.975H747.65C748.042 287.975 748.354 287.854 748.588 287.612C748.829 287.362 748.95 287.058 748.95 286.7C748.95 286.325 748.829 286.021 748.588 285.787C748.354 285.546 748.042 285.425 747.65 285.425H744.45V287.975ZM755.544 291V278.225H759.294V284.675L763.994 278.225H767.744V291H763.994V284.575L759.294 291H755.544ZM772.361 286.175L771.686 278.925V273.2H775.411V278.925L774.736 286.175H772.361ZM773.536 291.3C772.853 291.3 772.29 291.071 771.849 290.612C771.407 290.154 771.186 289.6 771.186 288.95C771.186 288.275 771.407 287.712 771.849 287.262C772.29 286.804 772.853 286.575 773.536 286.575C774.228 286.575 774.803 286.804 775.261 287.262C775.728 287.712 775.961 288.275 775.961 288.95C775.961 289.6 775.728 290.154 775.261 290.612C774.803 291.071 774.228 291.3 773.536 291.3Z" fill="#4B4C3E"/>
<path d="M289.845 450C272.996 438.607 286.882 420.832 298 438.984" stroke="black" stroke-opacity="0.9" stroke-width="6.4" stroke-linecap="round" stroke-linejoin="round"/>
<path d="M351.6 437.519C359.882 424.211 379.512 425.956 367.301 444" stroke="black" stroke-opacity="0.9" stroke-width="6.4" stroke-linecap="round" stroke-linejoin="round"/>
<path d="M312.461 447.6C312.145 445.64 313.138 443.746 313.6 442" stroke="black" stroke-opacity="0.9" stroke-width="6.4" stroke-linecap="round" stroke-linejoin="round"/>
<path d="M325.6 450C325.764 446.646 325.979 443.284 326.4 440" stroke="black" stroke-opacity="0.9" stroke-width="6.4" stroke-linecap="round" stroke-linejoin="round"/>
<path d="M339.2 447.6C339.2 445.864 339.2 444.132 339.2 442.4" stroke="black" stroke-opacity="0.9" stroke-width="6.4" stroke-linecap="round" stroke-linejoin="round"/>
<path d="M309.2 473.2C312.189 472.366 315.354 472.009 318.4 471.6" stroke="black" stroke-opacity="0.9" stroke-width="6.4" stroke-linecap="round" stroke-linejoin="round"/>
<path d="M338 471.6C341.158 470.97 344.112 471.172 347.2 471.6" stroke="black" stroke-opacity="0.9" stroke-width="6.4" stroke-linecap="round" stroke-linejoin="round"/>
<path d="M323.2 486.402C336.6 479.497 334.935 489.841 324.591 488.226" stroke="black" stroke-opacity="0.9" stroke-width="6.4" stroke-linecap="round" stroke-linejoin="round"/>
<path d="M328.4 490.8C327.621 499.322 320.789 500.07 314.8 497.494" stroke="black" stroke-opacity="0.9" stroke-width="6.4" stroke-linecap="round" stroke-linejoin="round"/>
<path d="M328.016 490.8C327.545 502.12 337.432 500.402 342.8 494.963" stroke="black" stroke-opacity="0.9" stroke-width="6.4" stroke-linecap="round" stroke-linejoin="round"/>
<path d="M292.4 481.2C286.53 479.291 280.325 479.186 274.4 478.4" stroke="black" stroke-opacity="0.9" stroke-width="6.4" stroke-linecap="round" stroke-linejoin="round"/>
<path d="M294.4 490.8C287.947 492.323 281.497 493.501 275.2 495.6" stroke="black" stroke-opacity="0.9" stroke-width="6.4" stroke-linecap="round" stroke-linejoin="round"/>
<path d="M365.2 477.2C369.8 475.984 374.275 474.248 378.8 472.8" stroke="black" stroke-opacity="0.9" stroke-width="6.4" stroke-linecap="round" stroke-linejoin="round"/>
<path d="M366.8 488.4C371.543 487.799 376.855 488.011 381.2 488.172" stroke="black" stroke-opacity="0.9" stroke-width="6.4" stroke-linecap="round" stroke-linejoin="round"/>
</svg>
